<?xml version="1.0" encoding="UTF-8"?>
<!DOCTYPE svg PUBLIC "-//W3C//DTD SVG 1.1//EN" "http://www.w3.org/Graphics/SVG/1.1/DTD/svg11.dtd">
<!-- Creator: CorelDRAW X5 -->
<svg xmlns="http://www.w3.org/2000/svg" xml:space="preserve" width="82.0378mm" height="29.0006mm" style="shape-rendering:geometricPrecision; text-rendering:geometricPrecision; image-rendering:optimizeQuality; fill-rule:evenodd; clip-rule:evenodd"
viewBox="0 0 167.09 59.0666"
 xmlns:xlink="http://www.w3.org/1999/xlink">
 <defs>
  <style type="text/css">
   <![CDATA[
    .fil3 {fill:#0A98BF}
    .fil1 {fill:white}
    .fil2 {fill:white;fill-rule:nonzero}
    .fil0 {fill:#333333;fill-opacity:0.501961}
   ]]>
  </style>
 </defs>
 <g id="Layer_x0020_1">
  <metadata id="CorelCorpID_0Corel-Layer"/>
  <g id="_382215256">
   <path id="_384276152" class="fil0" d="M40.3596 45.3983c2.32351,-1.17988 4.3075,-3.21988 5.49349,-5.64869l13.8537 6.23425c-2.61497,5.67965 -7.12207,10.3114 -12.7296,13.083l-6.61757 -13.6686zm-10.4159 -4.41993l0.0602875 -0.00509185c1.39517,-0.123223 2.74349,-0.480874 4.01095,-1.06379l6.60738 13.6761c-3.3708,1.59945 -6.95994,2.47688 -10.6786,2.61069l0 -15.2179zm10.3024 -7.3345c0.532607,-1.24078 0.84932,-2.54776 0.944436,-3.89648l15.2063 0c-0.10754,3.49993 -0.879464,6.9021 -2.29866,10.1267l-13.8521 -6.23018zm-12.0139 22.561c-3.61888,-0.0979671 -7.13897,-0.906756 -10.4701,-2.40681 -2.70072,-1.21023 -5.15865,-2.82842 -7.31658,-4.81546l10.753 -10.753c1.9903,1.65913 4.44966,2.63717 7.03367,2.79217l0 15.1831zm-17.9754 -47.1163c2.63615,-2.50539 5.70755,-4.43255 9.13701,-5.73159 2.84736,-1.08517 5.81876,-1.68316 8.83843,-1.77848l0 15.1963c-2.69175,0.187176 -5.23421,1.25667 -7.24061,3.04859l-10.7348 -10.7348zm30.9505 18.9476c-0.177604,-2.58136 -1.16664,-5.02463 -2.82455,-6.9907l10.7444 -10.7444c2.39113,2.57953 4.23866,5.56518 5.49634,8.88629 1.08721,2.85082 1.68438,5.82609 1.77767,8.84882l-15.1939 0zm-39.4282 0c0.113243,-3.57651 0.920606,-7.05302 2.40315,-10.3436 1.22184,-2.7278 2.86121,-5.20794 4.87636,-7.38175l10.7497 10.7497c-1.66646,1.97075 -2.66039,4.40913 -2.84207,6.97563l-15.1871 0zm72.879 17.7096c-0.314065,0.0782108 -0.700434,0.163754 -1.1587,0.255814 -0.468043,0.0940973 -0.955434,0.184732 -1.46136,0.271497 -0.550123,0.0940973 -1.14383,0.164976 -1.78052,0.212228 -0.637499,0.0470487 -1.31044,0.0708785 -2.018,0.0708785 -0.637703,0 -1.22938,-0.0472523 -1.77461,-0.141757 -0.552975,-0.0959304 -1.05747,-0.240946 -1.51269,-0.435047 -0.453989,-0.193694 -0.866632,-0.429752 -1.23712,-0.70797 -0.37252,-0.279441 -0.700434,-0.600023 -0.982726,-0.961748 -0.280663,-0.359281 -0.519979,-0.746261 -0.717339,-1.16013 -0.196953,-0.413254 -0.356429,-0.859504 -0.477208,-1.33773 -0.117316,-0.464376 -0.205711,-0.954008 -0.264165,-1.46828l0 -0.00183306c-0.0586581,-0.515091 -0.0879871,-1.04974 -0.0879871,-1.60291l0 -8.92092 0 -0.515906 0.515702 0 2.84105 0 0.515702 0 0 0.515906 0 8.30989c0,1.8239 0.272312,3.10786 0.815918,3.85066 0.247667,0.338302 0.583933,0.59432 1.00819,0.766425 0.451138,0.183103 1.00533,0.274756 1.66259,0.274756 0.307751,0 0.613466,-0.009369 0.916736,-0.0285143 0.316917,-0.0197564 0.614688,-0.0446046 0.892499,-0.074341 0.0985782,-0.0103874 0.227707,-0.0252556 0.401238,-0.0458266l0.00224041 0c0.179233,-0.0209784 0.30103,-0.0354393 0.363354,-0.0437899l0.0549919 -0.00753593 0 -13.0017 0 -0.515906 0.515906 0 2.84125 0 0.515702 0 0 0.515906 0 15.4283 0 0.401645 -0.390646 0.0979671zm9.45088 -2.60397c0.67579,0 1.26156,-0.0144608 1.75709,-0.0435862 0.255407,-0.0150719 0.482096,-0.0354393 0.680067,-0.0611022 0.0448083,-0.00590654 0.0892092,-0.0118131 0.132999,-0.0185343l0 -3.95046 -0.0144608 -0.00366613c-0.151126,-0.0397164 -0.331988,-0.0759704 -0.541569,-0.108355 -0.206933,-0.0323841 -0.445231,-0.0572324 -0.71347,-0.074341 -0.255611,-0.0160902 -0.546661,-0.0246445 -0.872743,-0.0246445 -0.212025,0 -0.42079,0.00712859 -0.626501,0.0209784 -0.227911,0.0152755 -0.450934,0.036865 -0.668661,0.0647683 -0.212025,0.026885 -0.415495,0.0686381 -0.609189,0.125056 -0.184325,0.0535662 -0.365798,0.123834 -0.543402,0.210599 -0.170271,0.0826916 -0.320786,0.176585 -0.451341,0.28107 -0.130351,0.104077 -0.25113,0.227096 -0.362336,0.368242 -0.0920606,0.116705 -0.162124,0.254592 -0.209173,0.412847 -0.0513258,0.171901 -0.0771924,0.371094 -0.0771924,0.597783 0,0.435658 0.065583,0.795346 0.196138,1.07906 0.119149,0.259277 0.297364,0.461118 0.533626,0.605115 0.278015,0.169457 0.610818,0.297568 0.998206,0.384333 0.401034,0.0898202 0.865003,0.134832 1.39191,0.134832zm-0.244205 -14.237c0.594728,0 1.14587,0.0391054 1.65342,0.116705 0.514684,0.0790255 0.986393,0.199397 1.41472,0.360706 0.42853,0.161106 0.816732,0.357244 1.1644,0.586988 0.351337,0.232188 0.662755,0.501241 0.933437,0.806549 0.531181,0.599005 0.909404,1.30942 1.13406,2.13023 0.110595,0.402867 0.192268,0.817954 0.245427,1.24485 0.0533626,0.431992 0.0802475,0.881908 0.0802475,1.34954l0 9.9291 0 0.436269 -0.433011 0.0712859 -0.446453 0.0737299 -0.577008 0.094301c-0.220782,0.0358466 -0.458674,0.0710822 -0.712859,0.105096 -0.265794,0.0354393 -0.531385,0.0684344 -0.795143,0.0975598 -0.237687,0.0264776 -0.528126,0.0558066 -0.869484,0.0877834 -0.367224,0.0346246 -0.677827,0.0619169 -0.933845,0.0822842 -0.659089,0.0523442 -1.30922,0.0784144 -1.94977,0.0784144 -0.461321,0 -0.910015,-0.0242372 -1.3471,-0.0729152 -0.430567,-0.0478634 -0.846672,-0.120575 -1.24832,-0.218135 -0.818565,-0.199397 -1.5302,-0.517332 -2.13471,-0.953194 -0.312639,-0.226078 -0.590043,-0.487595 -0.832008,-0.784144 -0.239317,-0.293494 -0.445027,-0.623242 -0.616317,-0.988837 -0.171901,-0.366817 -0.300012,-0.766221 -0.383925,-1.1976 -0.0828953,-0.426493 -0.124648,-0.883945 -0.124648,-1.37256 0,-0.475578 0.0494928,-0.922032 0.147664,-1.33875 0.0998002,-0.420994 0.251537,-0.812659 0.455618,-1.17377 0.200415,-0.355207 0.435251,-0.674772 0.704508,-0.958286 0.270479,-0.284532 0.577212,-0.535662 0.919588,-0.752575 0.331988,-0.210191 0.691065,-0.39248 1.07601,-0.546457 0.38087,-0.152144 0.789033,-0.277404 1.22388,-0.375371 0.428937,-0.0963377 0.866021,-0.168642 1.31105,-0.216098 0.452971,-0.0486781 0.909404,-0.0731189 1.36808,-0.0731189 0.291254,0 0.603689,0.0167013 0.936289,0.0501038 0.166809,0.0164976 0.322212,0.0350319 0.466821,0.0551956 0.147053,0.0205711 0.295734,0.0452156 0.446453,0.0729152 0.221801,0.0409384 0.401034,0.0745446 0.537292,0.100819l0 -0.160495c0,-0.222616 -0.0114057,-0.437491 -0.0342172,-0.64422 -0.0238298,-0.217116 -0.0586581,-0.429141 -0.104485,-0.635055 -0.0421605,-0.190231 -0.103059,-0.373538 -0.181473,-0.548494 -0.0775997,-0.171901 -0.170882,-0.331174 -0.279644,-0.478023 -0.10367,-0.139517 -0.228929,-0.26722 -0.375167,-0.382703 -0.153163,-0.120575 -0.324656,-0.225263 -0.514277,-0.313861 -0.188195,-0.0877834 -0.409588,-0.154792 -0.663773,-0.200415 -0.260092,-0.0464376 -0.562344,-0.0700638 -0.905941,-0.0700638 -0.909404,0 -1.69762,0.0629352 -2.36486,0.188602 -0.342987,0.0647683 -0.638518,0.129537 -0.885981,0.194509 -0.238909,0.0623242 -0.434436,0.125259 -0.586581,0.187787l-0.611429 0.251945 -0.0934863 -0.654608 -0.336062 -2.35243 -0.0549919 -0.384129 0.355004 -0.157847c0.209784,-0.093079 0.481281,-0.182899 0.814084,-0.26885 0.332396,-0.0859504 0.712044,-0.167013 1.13793,-0.242983 0.441158,-0.0788218 0.903294,-0.138295 1.38498,-0.177807 0.480263,-0.0397164 0.975394,-0.0594728 1.486,-0.0594728zm10.001 0.871724c0.342376,-0.085543 0.729967,-0.171901 1.16216,-0.258258 0.416309,-0.0833026 0.908385,-0.173123 1.47501,-0.269461 0.556233,-0.094301 1.153,-0.16518 1.78968,-0.212025 0.640351,-0.0472523 1.31451,-0.0706748 2.02207,-0.0706748 0.656237,0 1.26257,0.0472523 1.8186,0.141553 0.564788,0.0959304 1.07499,0.24115 1.52979,0.435251 0.453378,0.19349 0.864596,0.42853 1.23325,0.703897 0.373538,0.279441 0.697787,0.596357 0.97295,0.950139 0.271294,0.34869 0.504297,0.73567 0.698601,1.16053 0.190435,0.417328 0.34095,0.867651 0.450323,1.34954 0.106521,0.468654 0.186158,0.959915 0.239317,1.47338 0.0535662,0.52059 0.0802475,1.05483 0.0802475,1.60312l0 8.92092 0 0.515702 -0.515499 0 -2.84145 0 -0.515499 0 0 -0.515702 0 -8.30989c0,-0.479652 -0.0158866,-0.919588 -0.0476597,-1.3192 -0.0315695,-0.40083 -0.0786181,-0.763981 -0.140739,-1.08945 -0.0602875,-0.315287 -0.13972,-0.598394 -0.237484,-0.848709 -0.094301,-0.241761 -0.205303,-0.451952 -0.332803,-0.629963 -0.121797,-0.170882 -0.264572,-0.318953 -0.427919,-0.443398 -0.163957,-0.124852 -0.349504,-0.226893 -0.556641,-0.305307 -0.218542,-0.0830989 -0.468857,-0.146442 -0.750742,-0.18962 -0.289217,-0.0441972 -0.6098,-0.0663977 -0.962155,-0.0663977 -0.307548,0 -0.613262,0.00957267 -0.916736,0.028718 -0.32099,0.0197564 -0.624464,0.0448083 -0.909811,0.0741373 -0.143997,0.0148682 -0.27883,0.0309584 -0.403885,0.0476597 -0.112632,0.0150719 -0.231374,0.0336062 -0.356022,0.0551956l-0.0751557 0.0130351 0 12.9832 0 0.515702 -0.515702 0 -2.84125 0 -0.515702 0 0 -0.515702 0 -15.4285 0 -0.401849 0.39085 -0.0975598zm20.1458 -0.47456l5.50306 0 0.515702 0 0 0.515906 0 2.38278 0 0.515702 -0.515702 0 -5.50306 0 0 6.81676c0,0.395535 0.0140535,0.743002 0.0419568,1.042 0.027496,0.297771 0.0700638,0.568657 0.127092,0.81164 0.0539736,0.229133 0.119557,0.429752 0.196342,0.600838l0.000611022 -0.000407348c0.0725079,0.160902 0.155607,0.297771 0.248278,0.410199 0.0920606,0.111002 0.194305,0.2051 0.305918,0.281274 0.115279,0.0790255 0.240539,0.141146 0.375167,0.186158 0.149904,0.0496964 0.319361,0.0881908 0.507148,0.114872 0.185343,0.0264776 0.390239,0.0399201 0.614688,0.0399201 0.409792,0 0.771924,-0.0222005 1.0868,-0.0666014 0.308159,-0.0433825 0.573953,-0.106521 0.796161,-0.189213 0.191657,-0.0712859 0.417735,-0.156829 0.65807,-0.247871 0.179437,-0.0682307 0.317731,-0.122001 0.414476,-0.160495l0.556437 -0.222819 0.136461 0.583118 0.549919 2.35264 0.0918569 0.393905 -0.363762 0.181881c-0.170679,0.0853394 -0.385962,0.174752 -0.644628,0.267016 -0.250926,0.0896165 -0.562955,0.190639 -0.934863,0.302252 -0.37863,0.113039 -0.787403,0.198989 -1.22632,0.256629 -0.438103,0.057436 -0.893314,0.086154 -1.36482,0.086154 -0.564177,0 -1.08293,-0.0364576 -1.55444,-0.109169l-0.00203674 0c-0.480059,-0.0739336 -0.91531,-0.18738 -1.30412,-0.339728 -0.791273,-0.309584 -1.42999,-0.776405 -1.91494,-1.40046 -0.235854,-0.303067 -0.438917,-0.646054 -0.608985,-1.02896l-0.00183306 0c-0.163754,-0.369261 -0.292883,-0.773553 -0.387388,-1.21206 -0.0894128,-0.415495 -0.157033,-0.870298 -0.202859,-1.36278 -0.0456229,-0.495131 -0.0690454,-1.00839 -0.0690454,-1.53937l0 -14.1759 0 -0.433825 0.429141 -0.0737299 2.84145 -0.488817 0.60206 -0.10367 0 0.611225 0 4.40302zm21.1923 16.4438c-0.313861,0.0782108 -0.700027,0.163754 -1.1585,0.255814 -0.468043,0.0940973 -0.95523,0.184732 -1.46156,0.271497 -0.549919,0.0940973 -1.14363,0.164976 -1.78031,0.212228 -0.637499,0.0470487 -1.31023,0.0708785 -2.0182,0.0708785 -0.637703,0 -1.22917,-0.0472523 -1.77461,-0.141757 -0.552771,-0.0959304 -1.05747,-0.240946 -1.51228,-0.435047 -0.453989,-0.193694 -0.866632,-0.429752 -1.23752,-0.70797 -0.372316,-0.279441 -0.700027,-0.600023 -0.982523,-0.961748 -0.280866,-0.359281 -0.520183,-0.746261 -0.717339,-1.16013 -0.197156,-0.413254 -0.356226,-0.859504 -0.477208,-1.33773 -0.117112,-0.462951 -0.205303,-0.952379 -0.263758,-1.46828l-0.000203674 0c-0.0586581,-0.515091 -0.0883945,-1.05014 -0.0883945,-1.60475l0 -8.92092 0 -0.515906 0.515906 0 2.84125 0 0.515702 0 0 0.515906 0 8.30989c0,1.8239 0.272108,3.10786 0.815714,3.85066 0.247871,0.338302 0.583729,0.59432 1.00798,0.766425 0.451341,0.183103 1.00574,0.274756 1.66279,0.274756 0.307751,0 0.613669,-0.009369 0.91694,-0.0285143 0.316917,-0.0197564 0.614484,-0.0446046 0.892499,-0.074341 0.0985782,-0.0103874 0.227504,-0.0252556 0.401238,-0.0458266l0.00203674 0c0.179233,-0.0209784 0.300826,-0.0354393 0.363558,-0.0437899l0.0549919 -0.00753593 0 -13.0017 0 -0.515906 0.515499 0 2.84145 0 0.515499 0 0 0.515906 0 15.4283 0 0.401645 -0.390646 0.0979671zm14.5873 -7.95428c0,-0.876409 -0.105707,-1.64365 -0.317528,-2.30233 -0.205507,-0.639943 -0.512443,-1.18233 -0.920199,-1.62613 -0.405922,-0.44238 -0.87926,-0.773553 -1.41838,-0.994132l0 -0.00183306c-0.545439,-0.222616 -1.16827,-0.333821 -1.86912,-0.333821 -0.844025,0 -1.48987,0.0285143 -1.93673,0.0853394 -0.220375,0.028107 -0.425678,0.0600838 -0.615095,0.095523l-0.00183306 0 -0.0773961 0.0144608 0 9.36004c0.10754,0.074341 0.229744,0.149089 0.366002,0.224245 0.230151,0.126889 0.500019,0.253167 0.808585,0.378426 0.296957,0.120575 0.604708,0.210802 0.92305,0.269664 0.320175,0.0594728 0.661125,0.0892092 1.02224,0.0892092 0.375167,0 0.717747,-0.0327915 1.02774,-0.0981708l-0.000203674 -0.000407348c0.30327,-0.0641573 0.580878,-0.160291 0.8316,-0.287995 0.255611,-0.130148 0.485966,-0.282903 0.690047,-0.458674 0.202859,-0.174345 0.384129,-0.37476 0.543198,-0.600227 0.165994,-0.234836 0.30714,-0.486577 0.423642,-0.755019 0.118131,-0.27333 0.21508,-0.572731 0.290235,-0.896776 0.0767851,-0.331988 0.135036,-0.677623 0.173326,-1.03568 0.0378833,-0.353782 0.056825,-0.729152 0.056825,-1.12571zm3.99506 0c0,0.620798 -0.0415495,1.22286 -0.124648,1.80638 -0.0820806,0.579452 -0.206729,1.13813 -0.373131,1.67501 -0.168031,0.541569 -0.374964,1.04485 -0.620594,1.50922 -0.247056,0.467228 -0.53607,0.89922 -0.866225,1.29516 -0.332396,0.398793 -0.699823,0.751557 -1.10228,1.05829 -0.403274,0.30714 -0.844636,0.571305 -1.32449,0.79168 -0.477615,0.219764 -0.990466,0.38474 -1.53733,0.494724 -0.547068,0.109577 -1.11919,0.164976 -1.71616,0.164976 -0.4823,0 -0.939548,-0.0327915 -1.37093,-0.0979671 -0.432196,-0.0651756 -0.84158,-0.16518 -1.22714,-0.299197 -0.332192,-0.115483 -0.628538,-0.229948 -0.888425,-0.343394l0 5.50999 0 0.515702 -0.515702 0 -2.84105 0 -0.515906 0 0 -0.515702 0 -21.0499 0 -0.403885 0.39472 -0.0957267c0.358466,-0.0865614 0.74178,-0.17353 1.14954,-0.260092 0.425271,-0.0900239 0.89087,-0.183714 1.39517,-0.280459 0.525275,-0.100615 1.08741,-0.175974 1.6852,-0.225671 0.59982,-0.0496964 1.23671,-0.0745446 1.90985,-0.0745446 0.639129,0 1.24934,0.0509185 1.82981,0.152959 0.585359,0.102855 1.13854,0.257444 1.65892,0.463765 0.515702,0.204081 1.00004,0.455211 1.45219,0.753186 0.451138,0.296957 0.862152,0.636277 1.23223,1.01735 0.372927,0.383925 0.70349,0.810011 0.990873,1.27846 0.285754,0.464987 0.52833,0.970099 0.72793,1.51513 0.198786,0.542791 0.348486,1.12082 0.448083,1.73265 0.0993929,0.611022 0.149497,1.24872 0.149497,1.91189zm6.49373 5.35031c0.551956,0 1.02794,-0.0354393 1.42775,-0.106521 0.377,-0.066805 0.680067,-0.162532 0.908385,-0.287384 0.193083,-0.105096 0.336266,-0.238706 0.42853,-0.400219 0.094301,-0.164772 0.141757,-0.369464 0.141757,-0.614891 0,-0.520794 -0.205507,-0.932826 -0.615502,-1.23691 -0.250519,-0.185547 -0.58984,-0.386777 -1.01776,-0.603078 -0.44075,-0.222819 -0.969284,-0.45847 -1.58642,-0.707359 -0.313454,-0.125259 -0.61591,-0.250315 -0.907774,-0.374353 -0.304085,-0.12974 -0.593709,-0.25724 -0.86928,-0.382296 -0.295938,-0.134425 -0.576397,-0.284125 -0.841173,-0.448286l-0.00203674 0c-0.262128,-0.162735 -0.505111,-0.339321 -0.728541,-0.529145 -0.228929,-0.194712 -0.436677,-0.411421 -0.622631,-0.649516 -0.183306,-0.23504 -0.344209,-0.49065 -0.482096,-0.766425l-0.00183306 0c-0.140739,-0.281477 -0.246649,-0.596357 -0.317324,-0.944232 -0.0692491,-0.340339 -0.103874,-0.703286 -0.103874,-1.08782 0,-0.778645 0.146034,-1.48132 0.438103,-2.10802 0.293087,-0.630167 0.7318,-1.17683 1.31533,-1.64039 0.571102,-0.453378 1.24404,-0.792902 2.0182,-1.01857 0.758482,-0.220986 1.60821,-0.331581 2.54898,-0.331581 0.461525,0 0.928549,0.026885 1.40046,0.0804512 0.231374,0.0262739 0.453378,0.0549919 0.665199,0.0859504l0.00183306 0c0.197767,0.0289217 0.404904,0.0635462 0.62202,0.103466 0.402256,0.0739336 0.758685,0.153977 1.06766,0.239113 0.164161,0.0452156 0.300826,0.084932 0.408977,0.118538l0 0.000814695c0.118946,0.0366613 0.226282,0.0735263 0.320583,0.108762l0.416106 0.155811 -0.0916532 0.432196 -0.519165 2.44429 -0.142368 0.668254 -0.603078 -0.322008c-0.127704,-0.0682307 -0.300215,-0.140128 -0.515906,-0.215894 -0.224449,-0.0788218 -0.494316,-0.160291 -0.809196,-0.243798 -0.300826,-0.0798402 -0.635259,-0.140128 -1.00228,-0.180862 -0.367224,-0.0403274 -0.773757,-0.0604911 -1.21919,-0.0604911 -0.363558,0 -0.697787,0.0346246 -1.00248,0.104077 -0.301437,0.0684344 -0.579248,0.171086 -0.83323,0.306733 -0.21121,0.112835 -0.366409,0.252148 -0.465598,0.417939 -0.0975598,0.16355 -0.146645,0.367428 -0.146645,0.610614 0,0.268442 0.047456,0.497575 0.142164,0.686788 0.048067,0.0965414 0.109373,0.188602 0.18351,0.275774 0.0739336,0.0867651 0.169049,0.17516 0.284736,0.265183 0.122612,0.0957267 0.257444,0.186158 0.403682,0.27109 0.158255,0.0920606 0.329341,0.179844 0.512851,0.262332l0.00183306 0c0.187787,0.084321 0.404293,0.175363 0.650331,0.272312 0.238706,0.0947084 0.498186,0.191861 0.777831,0.291865l0.00835063 0.00427715c0.389832,0.147256 0.751557,0.290643 1.08538,0.429752 0.352967,0.147053 0.675586,0.288606 0.967044,0.424253 0.30714,0.142775 0.600227,0.303474 0.879667,0.481078 0.275163,0.17516 0.526701,0.362743 0.75339,0.56214 0.240335,0.210599 0.451341,0.441361 0.632407,0.691473 0.183103,0.25337 0.338302,0.526904 0.464987,0.820602 0.127907,0.296142 0.22343,0.623649 0.286365,0.981504 0.0613058,0.349097 0.0922643,0.726301 0.0922643,1.13141 0,0.809604 -0.154385,1.52918 -0.463154,2.15792 -0.312232,0.636074 -0.777423,1.16807 -1.39496,1.59517 -1.17907,0.815307 -2.82984,1.22327 -4.95152,1.22327 -0.712655,0 -1.35769,-0.0307548 -1.93287,-0.0920606 -0.580267,-0.0619169 -1.08436,-0.156014 -1.51146,-0.281477 -0.421605,-0.124648 -0.760518,-0.228929 -1.01613,-0.31325 -0.278219,-0.0920606 -0.498594,-0.172715 -0.659496,-0.241761l-0.390035 -0.166809 0.0877834 -0.413051 0.519572 -2.44429 0.124037 -0.583729 0.558677 0.209173c0.126074,0.0472523 0.333618,0.121797 0.627112,0.225467 0.217116,0.0763777 0.52446,0.183103 0.918977,0.318342l-0.000407348 0.000407348c0.327711,0.112224 0.708581,0.196545 1.14261,0.252148 0.441972,0.0572324 0.952786,0.0857467 1.53163,0.0857467zm-150.923 4.50914c-2.53493,-2.65 -4.48286,-5.74483 -5.79391,-9.20239 -1.06827,-2.80439 -1.66402,-5.72833 -1.77257,-8.70115l15.2012 0c0.215894,2.67057 1.30168,5.18696 3.0989,7.16993l-10.7336 10.7336zm27.8223 -27.8223c-2.01393,-1.80353 -4.55456,-2.87954 -7.23531,-3.06855l0 -15.1871 -0.37863 0 0 -0.00998002c3.7087,0.0663977 7.31474,0.877834 10.723,2.41231 2.83331,1.26991 5.39939,2.98932 7.63227,5.11201l-10.7414 10.7414z"/>
   <g>
    <path id="_384275984" class="fil1" d="M38.5805 43.8353c2.32372,-1.18009 4.3075,-3.21988 5.49349,-5.64869l13.8537 6.23425c-2.61477,5.67945 -7.12227,10.3114 -12.7296,13.0828l-6.61757 -13.6684z"/>
    <path id="_384276272" class="fil1" d="M35.3999 18.2655c-2.01393,-1.80353 -4.55456,-2.87934 -7.23531,-3.06835l0 -15.1871 -0.37863 0 0 -0.0101837c3.7087,0.0663977 7.31474,0.878038 10.723,2.41231 2.83331,1.26991 5.39939,2.98932 7.63227,5.11201l-10.7414 10.7414z"/>
    <path id="_384279296" class="fil1" d="M7.57769 46.0877c-2.53493,-2.6498 -4.48307,-5.74462 -5.79391,-9.20239 -1.06827,-2.80439 -1.66422,-5.72833 -1.77257,-8.70095l15.2012 0c0.215894,2.67037 1.30168,5.18676 3.0989,7.16973l-10.7336 10.7336z"/>
    <path id="_384279248" class="fil2" d="M72.8788 44.1826c-0.313861,0.0782108 -0.700231,0.163754 -1.1585,0.256018 -0.468043,0.0938937 -0.955434,0.184732 -1.46156,0.271497 -0.549919,0.0940973 -1.14363,0.164976 -1.78031,0.212025 -0.637499,0.0472523 -1.31044,0.0710822 -2.0182,0.0710822 -0.637499,0 -1.22917,-0.047456 -1.77441,-0.141961 -0.553178,-0.0957267 -1.05747,-0.240946 -1.51269,-0.435047 -0.453785,-0.193694 -0.866632,-0.429752 -1.23712,-0.70797 -0.37252,-0.279441 -0.700434,-0.600023 -0.982726,-0.961544 -0.280866,-0.359484 -0.519979,-0.746261 -0.717339,-1.16013 -0.197156,-0.413458 -0.356429,-0.859504 -0.477208,-1.33793 -0.11752,-0.464376 -0.205711,-0.953805 -0.264165,-1.46808l0 -0.00203674c-0.0584544,-0.515091 -0.0879871,-1.04974 -0.0879871,-1.60312l0 -8.92071 0 -0.515702 0.515702 0 2.84105 0 0.515702 0 0 0.515702 0 8.30989c0,1.8239 0.272312,3.10766 0.815918,3.85066 0.247667,0.338506 0.583933,0.59432 1.00819,0.766425 0.451138,0.183103 1.00554,0.274756 1.66259,0.274756 0.307751,0 0.613669,-0.009369 0.916736,-0.0283107 0.316917,-0.0197564 0.614688,-0.0448083 0.892499,-0.0745446 0.0987818,-0.0103874 0.227504,-0.0252556 0.401238,-0.0458266l0.00224041 0c0.179233,-0.0207747 0.300826,-0.0356429 0.363354,-0.0437899l0.0549919 -0.00753593 0 -13.0017 0 -0.515702 0.515702 0 2.84145 0 0.515702 0 0 0.515702 0 15.4283 0 0.401849 -0.39085 0.0977635zm9.45108 -2.60377c0.67579,0 1.26156,-0.0146645 1.75709,-0.0437899 0.255407,-0.0148682 0.482096,-0.0354393 0.680067,-0.0611022 0.0448083,-0.00570287 0.0892092,-0.0118131 0.132795,-0.0185343l0 -3.95046 -0.0142572 -0.0038698c-0.151126,-0.0393091 -0.331988,-0.075563 -0.541569,-0.108151 -0.206933,-0.0321805 -0.445027,-0.0570287 -0.713673,-0.074341 -0.255611,-0.0162939 -0.546661,-0.0244409 -0.872539,-0.0244409 -0.211821,0 -0.42079,0.00692491 -0.626501,0.0207747 -0.227911,0.0152755 -0.450934,0.0370686 -0.668865,0.0647683 -0.212025,0.0270886 -0.415087,0.0688418 -0.608781,0.125259 -0.184325,0.0533626 -0.366002,0.12363 -0.543809,0.210395 -0.170068,0.0826916 -0.320583,0.176585 -0.451138,0.28107 -0.130351,0.104077 -0.251334,0.227096 -0.362539,0.368242 -0.0918569,0.116909 -0.161921,0.254592 -0.209173,0.412847 -0.0511221,0.171901 -0.0769887,0.371094 -0.0769887,0.597783 0,0.435658 0.065583,0.79555 0.196138,1.07927 0.119149,0.259073 0.297364,0.460914 0.533626,0.605115 0.277811,0.169253 0.610818,0.297568 0.998206,0.384333 0.401034,0.0898202 0.865003,0.134832 1.39191,0.134832zm-0.244409 -14.2372c0.594931,0 1.14607,0.0391054 1.65363,0.116909 0.514684,0.0788218 0.986393,0.199193 1.41472,0.360706 0.428326,0.161106 0.816936,0.35704 1.16461,0.586784 0.351134,0.232392 0.662347,0.501241 0.93303,0.806752 0.531181,0.598801 0.909608,1.30922 1.13426,2.13002 0.110595,0.403071 0.192268,0.817954 0.245223,1.24485 0.0535662,0.431992 0.0804512,0.881908 0.0804512,1.34954l0 9.9291 0 0.436269 -0.433011 0.0712859 -0.446453 0.0739336 -0.577008 0.0940973c-0.220986,0.0360503 -0.458877,0.0712859 -0.712859,0.105096 -0.265794,0.0356429 -0.531181,0.0684344 -0.795143,0.0975598 -0.237484,0.0264776 -0.528126,0.0558066 -0.86928,0.0879871 -0.367428,0.0344209 -0.67803,0.0619169 -0.934048,0.0820806 -0.659089,0.0523442 -1.30922,0.0786181 -1.94977,0.0786181 -0.461118,0 -0.910219,-0.0244409 -1.3471,-0.0731189 -0.430567,-0.0476597 -0.846672,-0.120575 -1.24832,-0.218135 -0.818769,-0.199193 -1.53041,-0.517128 -2.1345,-0.953194 -0.312843,-0.226078 -0.590247,-0.487392 -0.832211,-0.783941 -0.239317,-0.293494 -0.445027,-0.623446 -0.616317,-0.98904 -0.171697,-0.366613 -0.300012,-0.766221 -0.383925,-1.1976 -0.0830989,-0.426493 -0.124648,-0.884148 -0.124648,-1.37235 0,-0.475782 0.0492891,-0.922235 0.147867,-1.33895 0.0993929,-0.420994 0.251334,-0.812455 0.455415,-1.17377 0.200415,-0.355207 0.435455,-0.674772 0.704508,-0.958082 0.270479,-0.284736 0.577415,-0.535866 0.919791,-0.752575 0.331988,-0.210191 0.690658,-0.392683 1.0756,-0.546661 0.381074,-0.152144 0.78944,-0.277607 1.22408,-0.375167 0.428937,-0.0965414 0.866021,-0.168642 1.31105,-0.216302 0.452971,-0.0486781 0.9092,-0.0729152 1.36808,-0.0729152 0.291254,0 0.603486,0.0167013 0.936289,0.0499001 0.166605,0.0167013 0.322212,0.0352356 0.466821,0.0553993 0.146849,0.0205711 0.295938,0.0450119 0.446453,0.0727116 0.222005,0.0411421 0.401034,0.0747483 0.537088,0.100819l0 -0.160291c0,-0.222819 -0.0114057,-0.437695 -0.0340135,-0.644424 -0.0238298,-0.217116 -0.0586581,-0.429141 -0.104281,-0.634851 -0.0425678,-0.190435 -0.103059,-0.373742 -0.181881,-0.548697 -0.0773961,-0.171697 -0.170679,-0.331174 -0.279644,-0.478023 -0.103466,-0.139517 -0.228929,-0.26722 -0.375167,-0.3825 -0.152755,-0.120575 -0.324452,-0.225467 -0.513869,-0.313861 -0.188398,-0.0877834 -0.409996,-0.154792 -0.663977,-0.200415 -0.260295,-0.0466413 -0.562344,-0.0700638 -0.905941,-0.0700638 -0.9092,0 -1.69783,0.0629352 -2.36486,0.188602 -0.342987,0.0645646 -0.638518,0.129537 -0.885778,0.194305 -0.239113,0.0625279 -0.434844,0.125259 -0.586784,0.187787l-0.611429 0.251741 -0.0934863 -0.654404 -0.336062 -2.35243 -0.0549919 -0.384129 0.355004 -0.157644c0.209784,-0.0932826 0.481078,-0.183103 0.813881,-0.269053 0.332599,-0.0857467 0.712248,-0.167013 1.13813,-0.242983 0.441361,-0.0788218 0.903294,-0.138295 1.38498,-0.177807 0.480263,-0.0395127 0.975598,-0.0594728 1.4858,-0.0594728zm10.0012 0.871724c0.342376,-0.085543 0.729967,-0.171697 1.16216,-0.258258 0.416513,-0.0830989 0.908385,-0.172919 1.47501,-0.269257 0.556437,-0.0945047 1.153,-0.16518 1.78968,-0.212228 0.640351,-0.0470487 1.31431,-0.0706748 2.02228,-0.0706748 0.656034,0 1.26237,0.0472523 1.8182,0.141757 0.565195,0.0957267 1.07519,0.240946 1.53,0.435047 0.453378,0.19349 0.864596,0.42853 1.23325,0.704101 0.373334,0.279237 0.697787,0.596357 0.973154,0.950139 0.271294,0.34869 0.504093,0.73567 0.698194,1.16053 0.190639,0.417124 0.341154,0.867447 0.450527,1.34934 0.106521,0.468654 0.186158,0.959915 0.239317,1.47358 0.0535662,0.520387 0.0804512,1.05462 0.0804512,1.60291l0 8.92092 0 0.515702 -0.515702 0 -2.84145 0 -0.515499 0 0 -0.515702 0 -8.30989c0,-0.479448 -0.0158866,-0.919384 -0.047456,-1.3192 -0.0317731,-0.40083 -0.0788218,-0.763981 -0.141146,-1.08945 -0.0600838,-0.315287 -0.139517,-0.598394 -0.23728,-0.848709 -0.094301,-0.241557 -0.205303,-0.451952 -0.332803,-0.630167 -0.122001,-0.170679 -0.264776,-0.318546 -0.427919,-0.442991 -0.163957,-0.124852 -0.349504,-0.226893 -0.556437,-0.305511 -0.218746,-0.0830989 -0.469265,-0.146442 -0.750742,-0.189417 -0.289217,-0.0444009 -0.610003,-0.0663977 -0.962359,-0.0663977 -0.307548,0 -0.613466,0.009369 -0.916736,0.0283107 -0.32099,0.01996 -0.624464,0.0450119 -0.909811,0.074341 -0.143997,0.0148682 -0.27883,0.0309584 -0.403885,0.0476597 -0.112428,0.0150719 -0.23117,0.0336062 -0.356226,0.0553993l-0.074952 0.0128315 0 12.9832 0 0.515702 -0.515702 0 -2.84125 0 -0.515702 0 0 -0.515702 0 -15.4283 0 -0.401849 0.39085 -0.0977635zm20.1458 -0.474356l5.50286 0 0.515906 0 0 0.515702 0 2.38298 0 0.515702 -0.515906 0 -5.50286 0 0 6.81656c0,0.395535 0.0140535,0.743206 0.0419568,1.0422 0.027496,0.297568 0.0700638,0.568454 0.127296,0.811437 0.0537699,0.229337 0.119557,0.429956 0.196138,0.600838l0.000814695 -0.000407348c0.0723042,0.161106 0.155199,0.297975 0.248075,0.410199 0.0918569,0.111002 0.194305,0.2051 0.305714,0.281477 0.115483,0.0788218 0.240743,0.140942 0.375371,0.185751 0.149904,0.0501038 0.319157,0.0885981 0.507148,0.115279 0.185343,0.0264776 0.390443,0.0397164 0.614891,0.0397164 0.409384,0 0.77172,-0.0222005 1.0866,-0.0663977 0.308362,-0.0433825 0.573953,-0.106725 0.796365,-0.189417 0.191453,-0.0712859 0.417531,-0.156625 0.657867,-0.247871 0.179437,-0.0682307 0.317731,-0.121797 0.41468,-0.160495l0.556233 -0.223023 0.136461 0.583526 0.549919 2.35243 0.0920606 0.394109 -0.363965 0.181881c-0.170882,0.0853394 -0.385962,0.174549 -0.644831,0.267016 -0.250926,0.0894128 -0.562751,0.190435 -0.934659,0.301845 -0.378426,0.113446 -0.787403,0.199193 -1.22632,0.256833 -0.438103,0.057436 -0.893314,0.0863577 -1.36482,0.0863577 -0.56438,0 -1.08273,-0.0366613 -1.55444,-0.109373l-0.00203674 0c-0.480263,-0.0739336 -0.91531,-0.18738 -1.30412,-0.339524 -0.791273,-0.309584 -1.42979,-0.776608 -1.91515,-1.40046 -0.235854,-0.303067 -0.438714,-0.646257 -0.608578,-1.02916l-0.00203674 0c-0.163754,-0.369261 -0.292883,-0.77335 -0.387388,-1.21186 -0.0894128,-0.415698 -0.157236,-0.870298 -0.202859,-1.36299 -0.0458266,-0.495131 -0.0688418,-1.00839 -0.0688418,-1.53937l0 -14.1759 0 -0.433825 0.428937 -0.0739336 2.84145 -0.488614 0.60206 -0.103466 0 0.611022 0 4.40323zm21.1923 16.4436c-0.313861,0.0782108 -0.700027,0.163754 -1.1585,0.256018 -0.468043,0.0938937 -0.955434,0.184732 -1.46156,0.271497 -0.549919,0.0940973 -1.14363,0.164976 -1.78031,0.212025 -0.637499,0.0472523 -1.31023,0.0710822 -2.0182,0.0710822 -0.637703,0 -1.22917,-0.047456 -1.77441,-0.141961 -0.553178,-0.0957267 -1.05747,-0.240946 -1.51269,-0.435047 -0.453785,-0.193694 -0.866632,-0.429752 -1.23712,-0.70797 -0.37252,-0.279441 -0.700231,-0.600023 -0.982726,-0.961544 -0.280866,-0.359484 -0.519979,-0.746261 -0.717339,-1.16013 -0.197156,-0.413458 -0.356429,-0.859504 -0.477208,-1.33793 -0.117112,-0.462747 -0.2051,-0.952379 -0.263961,-1.46808l0 0c-0.0586581,-0.515091 -0.0881908,-1.05035 -0.0881908,-1.60515l0 -8.92071 0 -0.515702 0.515702 0 2.84105 0 0.515906 0 0 0.515702 0 8.30989c0,1.8239 0.272108,3.10766 0.815714,3.85066 0.247667,0.338506 0.583933,0.59432 1.00819,0.766425 0.451138,0.183103 1.00554,0.274756 1.66259,0.274756 0.307751,0 0.613669,-0.009369 0.916736,-0.0283107 0.316917,-0.0197564 0.614688,-0.0448083 0.892499,-0.0745446 0.0987818,-0.0103874 0.227707,-0.0252556 0.401238,-0.0458266l0.00224041 0c0.179233,-0.0207747 0.300826,-0.0356429 0.363354,-0.0437899l0.0549919 -0.00753593 0 -13.0017 0 -0.515702 0.515702 0 2.84145 0 0.515702 0 0 0.515702 0 15.4283 0 0.401849 -0.39085 0.0977635zm14.5875 -7.95408c0,-0.876409 -0.10591,-1.64385 -0.317528,-2.30233 -0.205711,-0.640147 -0.512647,-1.18253 -0.920402,-1.62654 -0.405922,-0.441972 -0.87926,-0.77335 -1.41859,-0.993725l0 -0.00203674c-0.545235,-0.222412 -1.16827,-0.333821 -1.86891,-0.333821 -0.844228,0 -1.48987,0.0285143 -1.93673,0.085543 -0.220375,0.0279033 -0.425678,0.0598801 -0.614891,0.0953194l-0.00203674 0 -0.0773961 0.0146645 0 9.36004c0.10754,0.0741373 0.22954,0.148886 0.366002,0.224041 0.230151,0.126889 0.500019,0.253167 0.808585,0.37863 0.296957,0.120575 0.604708,0.210599 0.922846,0.269461 0.320175,0.0594728 0.661125,0.0894128 1.02244,0.0894128 0.374964,0 0.717747,-0.0329952 1.02774,-0.0981708l-0.000203674 -0.000611022c0.30327,-0.0639536 0.580674,-0.160291 0.831804,-0.287995 0.255611,-0.130148 0.485559,-0.282903 0.689843,-0.45847 0.202656,-0.174549 0.384129,-0.374964 0.543198,-0.600431 0.165994,-0.234836 0.30714,-0.486577 0.423438,-0.755019 0.118335,-0.273534 0.215283,-0.572527 0.290439,-0.896776 0.0769887,-0.331988 0.134832,-0.677419 0.173326,-1.03548 0.0378833,-0.353782 0.0570287,-0.729356 0.0570287,-1.12571zm3.99486 0c0,0.620594 -0.0417531,1.22286 -0.124445,1.80638 -0.0824879,0.579248 -0.206933,1.13793 -0.373334,1.67481 -0.168031,0.541773 -0.374964,1.04505 -0.620594,1.50922 -0.247056,0.467228 -0.535866,0.89922 -0.866225,1.29537 -0.332192,0.39859 -0.699823,0.751557 -1.10228,1.05829 -0.403071,0.306937 -0.844839,0.571102 -1.32469,0.79168 -0.477615,0.21956 -0.990262,0.384536 -1.53713,0.49452 -0.547272,0.10978 -1.11919,0.164976 -1.71616,0.164976 -0.4823,0 -0.939548,-0.0327915 -1.37093,-0.0979671 -0.432196,-0.0651756 -0.84158,-0.16518 -1.22714,-0.298993 -0.332192,-0.115483 -0.628538,-0.230151 -0.888425,-0.343394l0 5.50999 0 0.515702 -0.515702 0 -2.84125 0 -0.515702 0 0 -0.515702 0 -21.0499 0 -0.403885 0.39472 -0.0957267c0.35867,-0.0867651 0.741984,-0.173734 1.14954,-0.260295 0.425475,-0.0900239 0.890666,-0.183714 1.39537,-0.280459 0.525071,-0.100819 1.08701,-0.175974 1.68499,-0.225671 0.59982,-0.0496964 1.23671,-0.0745446 1.90985,-0.0745446 0.639332,0 1.24934,0.0511221 1.82981,0.153163 0.585155,0.102855 1.13854,0.257444 1.65892,0.463562 0.515702,0.204081 1.00004,0.455211 1.45219,0.753186 0.451138,0.296957 0.862152,0.636277 1.23243,1.01755 0.372723,0.383722 0.703082,0.809807 0.99067,1.27826 0.285551,0.465191 0.528534,0.970302 0.72793,1.51513 0.198786,0.542995 0.348486,1.12061 0.448083,1.73265 0.0993929,0.611022 0.149497,1.24852 0.149497,1.91209zm6.49394 5.35031c0.551753,0 1.02774,-0.0356429 1.42755,-0.106725 0.377,-0.066805 0.680067,-0.162532 0.908385,-0.28718 0.193083,-0.105299 0.336266,-0.238909 0.42853,-0.400219 0.094301,-0.164772 0.141553,-0.369872 0.141553,-0.615095 0,-0.52059 -0.2051,-0.93303 -0.615299,-1.23671 -0.250519,-0.185547 -0.58984,-0.386777 -1.01776,-0.603078 -0.440547,-0.222819 -0.969488,-0.458674 -1.58642,-0.707563 -0.313454,-0.125259 -0.61591,-0.250112 -0.907774,-0.374353 -0.303881,-0.129537 -0.593709,-0.257036 -0.86928,-0.382092 -0.295938,-0.134628 -0.576601,-0.284125 -0.841173,-0.44849l-0.00203674 0c-0.262128,-0.162735 -0.505315,-0.339321 -0.728541,-0.529348 -0.228929,-0.194305 -0.43688,-0.411218 -0.622427,-0.649312 -0.18351,-0.234836 -0.344413,-0.490447 -0.4823,-0.766221l-0.00203674 0c-0.140535,-0.281681 -0.246445,-0.596561 -0.31712,-0.944232 -0.0692491,-0.340339 -0.103874,-0.703286 -0.103874,-1.08803 0,-0.778442 0.146034,-1.48112 0.437899,-2.10802 0.293494,-0.629963 0.732004,-1.17683 1.31553,-1.64039 0.571102,-0.453174 1.24404,-0.792902 2.018,-1.01837 0.758685,-0.22119 1.60862,-0.331785 2.54918,-0.331785 0.461321,0 0.928549,0.026885 1.40046,0.0806549 0.231374,0.0262739 0.453174,0.0549919 0.664995,0.0857467l0.00203674 0c0.197564,0.0289217 0.404904,0.0635462 0.621816,0.103466 0.40246,0.0739336 0.758685,0.153977 1.06786,0.239317 0.164161,0.0452156 0.300826,0.0847283 0.408977,0.118335l-0.000203674 0.000611022c0.119149,0.036865 0.226485,0.0737299 0.32099,0.108966l0.415902 0.156014 -0.0918569 0.431992 -0.519165 2.44409 -0.142164 0.668458 -0.603078 -0.321805c-0.127907,-0.0682307 -0.300012,-0.140331 -0.515906,-0.216098 -0.224449,-0.0788218 -0.494316,-0.160088 -0.809196,-0.243594 -0.300826,-0.0800438 -0.635259,-0.140331 -1.00248,-0.180862 -0.367224,-0.0403274 -0.773553,-0.0606948 -1.21899,-0.0606948 -0.363558,0 -0.697787,0.0346246 -1.00248,0.104077 -0.301437,0.0686381 -0.579248,0.171086 -0.833433,0.306733 -0.211006,0.112835 -0.366206,0.252352 -0.465191,0.417939 -0.0977635,0.163754 -0.146849,0.367428 -0.146849,0.610818 0,0.268238 0.047456,0.497575 0.142164,0.686788 0.048067,0.0963377 0.109577,0.188398 0.18351,0.275571 0.0739336,0.0867651 0.169049,0.175363 0.284532,0.265183 0.122815,0.095523 0.257647,0.186158 0.403682,0.27109 0.158458,0.0920606 0.329341,0.179844 0.512851,0.262332l0.00203674 0c0.187787,0.084321 0.404496,0.175363 0.650127,0.272516 0.238909,0.0945047 0.49839,0.191861 0.778238,0.291661l0.00814695 0.00407348c0.389832,0.14746 0.751557,0.290846 1.08517,0.429956 0.35317,0.147053 0.67579,0.28881 0.967247,0.424456 0.306937,0.142775 0.600227,0.30327 0.879667,0.481078 0.275163,0.17516 0.526497,0.362539 0.75339,0.561936 0.240335,0.210802 0.451341,0.441361 0.632407,0.691676 0.183306,0.253167 0.338302,0.526701 0.464987,0.820398 0.127907,0.296142 0.223227,0.623649 0.286365,0.981708 0.0613058,0.348893 0.0920606,0.726097 0.0920606,1.1312 0,0.809807 -0.154385,1.52918 -0.462951,2.15792 -0.312232,0.636074 -0.777423,1.16807 -1.39517,1.59517 -1.17886,0.815307 -2.82944,1.22327 -4.95111,1.22327 -0.713062,0 -1.35789,-0.0307548 -1.93307,-0.0920606 -0.580471,-0.0617132 -1.08436,-0.155811 -1.51146,-0.281681 -0.421401,-0.124241 -0.760518,-0.228726 -1.01613,-0.313047 -0.278422,-0.0918569 -0.49839,-0.172512 -0.659496,-0.241557l-0.390035 -0.167013 0.0879871 -0.413254 0.519368 -2.44409 0.123834 -0.583729 0.558881 0.209173c0.126278,0.0472523 0.333618,0.122001 0.627112,0.225467 0.216913,0.0763777 0.52446,0.183306 0.918773,0.318342l0 0.000611022c0.327304,0.111817 0.708378,0.196138 1.14241,0.252148 0.441972,0.0572324 0.952583,0.0857467 1.53183,0.0857467z"/>
    <path id="_384279608" class="fil1" d="M-0 26.4729c0.113243,-3.57651 0.920606,-7.05302 2.40315,-10.3434 1.22184,-2.72801 2.86121,-5.20814 4.87636,-7.38196l10.7497 10.7497c-1.66646,1.97075 -2.66059,4.40913 -2.84207,6.97563l-15.1871 0z"/>
    <path id="_384279392" class="fil3" d="M39.4282 26.4729c-0.177604,-2.58116 -1.16664,-5.02463 -2.82455,-6.9907l10.7444 -10.7444c2.39113,2.57953 4.23866,5.56518 5.49634,8.88629 1.08721,2.85082 1.68438,5.82609 1.77767,8.84882l-15.1939 0z"/>
    <path id="_384276464" class="fil1" d="M8.47772 7.52555c2.63615,-2.5056 5.70755,-4.43276 9.13701,-5.73179 2.84736,-1.08517 5.81876,-1.68316 8.83843,-1.77828l0 15.1961c-2.69175,0.187176 -5.23421,1.25687 -7.24081,3.04859l-10.7346 -10.7346z"/>
    <path id="_384278192" class="fil3" d="M26.4532 54.6418c-3.61888,-0.0981708 -7.13897,-0.906756 -10.4701,-2.40702 -2.70072,-1.21023 -5.15865,-2.82842 -7.31658,-4.81546l10.753 -10.753c1.9903,1.65913 4.44966,2.63717 7.03367,2.79217l0 15.1833z"/>
    <path id="_384279488" class="fil3" d="M38.4671 32.0807c0.532607,-1.24058 0.84932,-2.54755 0.944436,-3.89628l15.2063 0c-0.10754,3.49973 -0.879464,6.9019 -2.29866,10.1267l-13.8521 -6.23038z"/>
    <path id="_382208176" class="fil3" d="M28.1646 39.4152l0.0602875 -0.00509185c1.39517,-0.123019 2.74349,-0.480874 4.01095,-1.06358l6.60738 13.6761c-3.3708,1.59925 -6.95994,2.47667 -10.6786,2.61049l0 -15.2179z"/>
   </g>
  </g>
 </g>
</svg>
