<svg fill-rule="evenodd" height="7.1507478567" image-rendering="optimizeQuality" shape-rendering="geometricPrecision" text-rendering="geometricPrecision" viewBox="0 0 0.932331 0.171485" width="38.877164404" xml:space="preserve" xmlns="http://www.w3.org/2000/svg"><defs>
  
 </defs>
 
 
  
  <path d="m.9314.1349c-.0041.0208-.0214.0366-.042.0366h-.7412-.0014-.0014-.1025c-.0206,0-.0379-.0158-.042-.0366 .0032.0123.0145.0215.0278.0215h.8748c.0133,0 .0246-.0092.0278-.0215z" fill="#3d3d3d"></path>
  <path d="m.0288,0h.8748c.0158,0 .0288.0129.0288.0288v.0988c0,.0158-.0129.0288-.0288.0288h-.8748c-.0158,0-.0288-.0129-.0288-.0288v-.0988c0-.0158.0129-.0288.0288-.0288z" fill="#0a98bf"></path>
  <path d="m.0961.0355 .0076-.0045h-.0248l-.0105.0012-.011.0057c-.0051.0049-.0077.0105-.0077.0165s.0018.0094.0054.0132 .0085.0061.0151.0062l.004-.0002-.0007.0021-.0005.0027 .0012.0047 .0024.0038-.0109.0011-.0126.0046c-.0036.0021-.006.0046-.0074.0074s-.0021.0054-.0021.0077 .0022.0087.0065.0121 .0108.0055.0194.0055 .0183-.0026.0238-.0074 .0079-.01.0079-.016c-.0001-.0042-.001-.0076-.0029-.0103l-.0069-.0071-.0042-.0034-.0019-.0021-.0011-.0032 .0011-.0035 .002-.0026 .0037-.0033 .0029-.0036c.0019-.0027.0029-.0062.0029-.0106l-.0008-.0063-.0023-.0047-.0027-.0036-.0026-.0021h.0076zm-.0201.0349-.0069-.0024-.0049-.0057c-.0026-.0048-.0039-.0095-.0039-.014s.0008-.0064.0027-.0092l.0084-.0041 .0067.0022 .0046.0058 .0038.0148-.0003.0042-.002.0048-.0081.0035zm.0173.0363c0,.0039-.0015.007-.0045.0095l-.0134.0039-.0154-.0043c-.0039-.0028-.0059-.0064-.0059-.0108l.0014-.0057 .0029-.0037 .0035-.0023 .0027-.0011 .0079-.0018 .0049-.0002 .0028.0001 .0102.0082c.002.0023.0031.0051.0031.0082z" fill="#fff" fill-rule="nonzero"></path>
  <path d="m.1657.0578h.0049v.0354h-.0049v-.0354zm.6655.032 .003-.0001 .0022-.0003v-.0079l-.0017-.0004-.0028-.0002-.0023.0002-.0022.0006-.0017.0013-.0007.0022 .0016.0035 .0044.001zm-.0004-.0238 .0048.0007 .0032.0021 .0017.0032 .0005.0041v.0166l-.0017.0003-.0025.0003-.003.0003-.0032.0001-.0041-.0005-.0033-.0015-.0021-.0026-.0008-.0039 .0009-.0038 .0024-.0026 .0036-.0014 .0043-.0005 .0015.0001 .0015.0002 .0012.0002 .0007.0002v-.0013l-.0003-.0023-.0009-.002-.0018-.0014-.003-.0005-.0041.0003-.0026.0007-.0006-.0039 .0031-.0008 .0046-.0004zm.0228.0272h-.0048v-.0265h.0048v.0265zm-.0024-.0313-.0022-.0008-.0009-.0023 .0009-.0023 .0022-.0008 .0022.0008 .0009.0023-.0009.0023-.0022.0008zm.0185.0318-.0062-.0019c-.0012-.0012-.0018-.0031-.0018-.0056v-.0318l.0048-.0008v.0319l.0002.0019 .0007.0012 .0012.0007 .0019.0004-.0007.004zm-.6906-.0263 .0043-.0009 .0062-.0005 .0053.0009 .0033.0025 .0018.0039 .0005.0049v.0149h-.0048v-.0139l-.0003-.0042-.0011-.0028-.002-.0016-.0032-.0005-.0016.0001-.0016.0001-.0013.0002-.0008.0002v.0224h-.0048v-.0258zm.0459.0231-.0024.001-.0041.0006-.0045-.0008-.0037-.0024-.0025-.004c-.0006-.0016-.0009-.0035-.0009-.0057l.0009-.0053 .0025-.0042 .0041-.0028 .0054-.001 .0058.0005 .0042.0009v.0237c0,.0041-.0011.007-.0032.0089l-.0096.0028-.0047-.0004-.0039-.001 .0009-.0041 .0035.001 .0043.0004 .0061-.0017c.0012-.0011.0019-.0029.0019-.0054v-.0011zm-.0001-.0197-.0019-.0004-.0032-.0002-.0059.0025c-.0014.0017-.0021.0039-.0021.0066l.0006.0039 .0016.0027 .0023.0016 .0027.0005 .0035-.0005 .0025-.0012v-.0155zm.0227-.0047 .0014.0001 .0016.0002 .0014.0003 .0009.0002-.0008.0041-.0019-.0005-.0033-.0003-.0026.0003-.0017.0004v.0223h-.0048v-.0254l.0042-.0011 .0056-.0005zm.0084.0139 .001-.0061 .0027-.0044 .0039-.0026 .0045-.0009 .0082.0033c.0019.0022.0029.0056.0029.0102v.0008l-.0001.0009h-.0182l.0024.0063 .0065.0021 .0042-.0004 .0026-.0008 .0007.004-.003.001-.0049.0005-.006-.001-.0042-.0029-.0024-.0044c-.0005-.0017-.0008-.0035-.0008-.0055zm.0182-.0026-.0016-.0053-.0046-.0021-.0029.0006-.0021.0017-.0014.0023-.0006.0027h.0132zm.018.0124 .0043-.0008 .0014-.0025-.0014-.0028-.0045-.0023-.0029-.0013-.0024-.0015-.0016-.0021-.0006-.003 .0026-.0056 .0071-.0021 .0023.0001 .0021.0003 .0017.0004 .0011.0004-.0009.0041-.0024-.0008-.0039-.0004-.0035.0008-.0015.0025 .0003.0015 .001.0012 .0017.001 .0024.001 .0034.0014 .0025.0016 .0016.0022 .0006.0032-.0027.0056-.0078.0019-.0055-.0006-.0027-.0009 .0009-.0041 .0026.0009 .0047.0006zm.0256,0 .003-.0001 .0022-.0003v-.0079l-.0017-.0004-.0028-.0002-.0023.0002-.0022.0006-.0017.0013-.0007.0022 .0016.0035 .0044.001zm-.0004-.0238 .0048.0007 .0032.0021 .0017.0032 .0005.0041v.0166l-.0017.0003-.0025.0003-.003.0003-.0032.0001-.0041-.0005-.0033-.0015-.0021-.0026-.0008-.0039 .0009-.0038 .0024-.0026 .0036-.0014 .0043-.0005 .0015.0001 .0015.0002 .0012.0002 .0007.0002v-.0013l-.0003-.0023-.0009-.002-.0018-.0014-.003-.0005-.0041.0003-.0026.0007-.0006-.0039 .0031-.0008 .0046-.0004zm.0414.0278-.0056-.001-.0041-.0029-.0025-.0044c-.0005-.0017-.0008-.0035-.0008-.0056l.0009-.0056 .0025-.0044 .004-.0029 .0053-.001 .0036.0003 .0034.001-.0011.004-.0025-.0008-.003-.0003-.0061.0025c-.0014.0017-.0021.0041-.0021.0073l.0005.0039 .0015.0031 .0027.002 .004.0007 .0034-.0004 .0024-.0008 .0007.004-.0012.0005-.0017.0004-.0021.0003-.0021.0001zm.0356-.0139-.0009.0057-.0026.0044-.004.0028-.005.001-.005-.001-.004-.0028-.0026-.0044c-.0006-.0017-.0009-.0036-.0009-.0057l.0009-.0057 .0026-.0044 .004-.0028 .005-.001 .005.001 .004.0028 .0026.0044c.0006.0017.0009.0036.0009.0057zm-.0049,0c0-.003-.0007-.0054-.002-.0071l-.0055-.0026-.0055.0026c-.0013.0018-.002.0041-.002.0071s.0007.0054.002.0071l.0055.0026 .0055-.0026c.0014-.0018.002-.0041.002-.0071zm.0116-.0125 .0043-.0009 .0062-.0005 .0053.0009 .0033.0025 .0018.0039 .0005.0049v.0149h-.0048v-.0139l-.0003-.0042-.0011-.0028-.002-.0016-.0032-.0005-.0016.0001-.0016.0001-.0013.0002-.0008.0002v.0224h-.0048v-.0258zm.0455-.0008h.0101v.004h-.0101v.0123l.0003.0033 .0009.002 .0015.0011 .0021.0003 .0034-.0005 .0018-.0007 .0009.0039-.0025.0009-.0041.0005-.0045-.0007-.0028-.0021-.0015-.0034-.0004-.0047v-.0237l.0048-.0008v.0082zm.0372.0258-.0043.0009-.0062.0005-.0052-.0009-.0034-.0025-.0018-.0039-.0006-.0049v-.0149h.0048v.0139c0,.0032.0005.0055.0015.0069l.0052.0021 .0016-.0001 .0015-.0001 .0013-.0002 .0008-.0002v-.0224h.0048v.0258zm.0315.0014-.0056-.001-.0041-.0029-.0025-.0044c-.0005-.0017-.0008-.0035-.0008-.0056l.0009-.0056 .0025-.0044 .004-.0029 .0053-.001 .0036.0003 .0034.001-.0011.004-.0025-.0008-.003-.0003-.0061.0025c-.0014.0017-.0021.0041-.0021.0073l.0005.0039 .0015.0031 .0027.002 .004.0007 .0034-.0004 .0024-.0008 .0007.004-.0012.0005-.0017.0004-.0021.0003-.0021.0001zm.0333-.0014-.0043.0009-.0062.0005-.0052-.0009-.0034-.0025-.0018-.0039-.0006-.0049v-.0149h.0048v.0139c0,.0032.0005.0055.0015.0069l.0052.0021 .0016-.0001 .0015-.0001 .0013-.0002 .0008-.0002v-.0224h.0048v.0258zm.0067-.0125 .001-.0061 .0027-.0044 .0039-.0026 .0045-.0009 .0082.0033c.0019.0022.0029.0056.0029.0102v.0008l-.0001.0009h-.0182l.0024.0063 .0065.0021 .0042-.0004 .0026-.0008 .0007.004-.003.001-.0049.0005-.006-.001-.0042-.0029-.0024-.0044c-.0005-.0017-.0008-.0035-.0008-.0055zm.0182-.0026-.0016-.0053-.0046-.0021-.0029.0006-.0021.0017-.0014.0023-.0006.0027h.0132zm.0118-.01 .0043-.0009 .0062-.0005 .0053.0009 .0033.0025 .0018.0039 .0005.0049v.0149h-.0048v-.0139l-.0003-.0042-.0011-.0028-.002-.0016-.0032-.0005-.0016.0001-.0016.0001-.0013.0002-.0008.0002v.0224h-.0048v-.0258zm.0337-.0008h.0101v.004h-.0101v.0123l.0003.0033 .0009.002 .0015.0011 .0021.0003 .0034-.0005 .0018-.0007 .0009.0039-.0025.0009-.0041.0005-.0045-.0007-.0028-.0021-.0015-.0034-.0004-.0047v-.0237l.0048-.0008v.0082zm.0251.0231 .003-.0001 .0022-.0003v-.0079l-.0017-.0004-.0028-.0002-.0023.0002-.0022.0006-.0017.0013-.0007.0022 .0016.0035 .0044.001zm-.0004-.0238 .0048.0007 .0032.0021 .0017.0032 .0005.0041v.0166l-.0017.0003-.0025.0003-.003.0003-.0032.0001-.0041-.0005-.0033-.0015-.0021-.0026-.0008-.0039 .0009-.0038 .0024-.0026 .0036-.0014 .0043-.0005 .0015.0001 .0015.0002 .0012.0002 .0007.0002v-.0013l-.0003-.0023-.0009-.002-.0018-.0014-.003-.0005-.0041.0003-.0026.0007-.0006-.0039 .0031-.0008 .0046-.0004zm.047.0063-.0025-.0014-.0036-.0007-.0035.0007-.0024.002-.0013.0031-.0004.0038c0,.0031.0008.0055.0023.0072l.0061.0025 .0032-.0002 .002-.0004v-.0168zm0-.0179 .0048-.0008v.0388l-.0042.0009-.0059.0005-.0055-.001-.0042-.0028-.0027-.0044c-.0006-.0017-.0009-.0036-.0009-.0058l.0008-.0056 .0023-.0044 .0037-.0029 .0051-.001 .0041.0006 .0026.0012v-.0134zm.0114.0256 .001-.0061 .0027-.0044 .0039-.0026 .0045-.0009 .0082.0033c.0019.0022.0029.0056.0029.0102v.0008l-.0001.0009h-.0182l.0024.0063 .0065.0021 .0042-.0004 .0026-.0008 .0007.004-.003.001-.0049.0005-.006-.001-.0042-.0029-.0024-.0044c-.0005-.0017-.0008-.0035-.0008-.0055zm.0182-.0026-.0016-.0053-.0046-.0021-.0029.0006-.0021.0017-.0014.0023-.0006.0027h.0132zm.0455-.0016h.005v.0165l-.0018.0005-.0027.0005-.0033.0004-.0036.0002-.0068-.0012-.0053-.0036-.0034-.0058c-.0008-.0023-.0012-.0049-.0012-.0079s.0005-.0056.0014-.0079l.0036-.0058 .0054-.0036 .0066-.0012 .0043.0003 .0032.0007 .0022.0008 .0012.0006-.0016.0041-.0039-.0016-.005-.0006-.0049.001-.0038.0028-.0024.0045c-.0006.0018-.0009.0037-.0009.0059l.0007.0058 .0022.0045 .0037.0029 .0052.001 .0037-.0002 .0022-.0004v-.0132zm.0124-.0084 .0043-.0009 .0062-.0005 .0043.0007 .0029.002 .0011-.0007 .0019-.0009 .0025-.0008 .003-.0003 .005.0009 .003.0025 .0015.0039 .0004.0049v.0149h-.0048v-.0139l-.0002-.004-.0009-.0028-.0017-.0017-.0028-.0005-.004.0006-.0021.0012 .0006.0029 .0002.0033v.0149h-.0048v-.0139l-.0003-.004-.0009-.0028-.0017-.0017-.0028-.0005-.0015.0001-.0016.0001-.0014.0002-.0008.0002v.0224h-.0048v-.0258z" fill="#fff" fill-rule="nonzero"></path>
 
</svg>
