<svg fill-rule="evenodd" height="7.150393526" image-rendering="optimizeQuality" shape-rendering="geometricPrecision" text-rendering="geometricPrecision" viewBox="0 0 10.972 2.018" width="38.877164404" xml:space="preserve" xmlns="http://www.w3.org/2000/svg"><defs>
  
 </defs>
 
 
  
  <path d="m10.9609,1.5873c-.0487.2453-.2524.4307-.4945.4307h-9.9609c-.242,0-.4457-.1854-.4944-.4307 .0382.1451.1708.2529.3275.2529h10.2948c.1567,0 .2893-.1078.3275-.2529z" fill="#3d3d3d"></path>
  <path d="m.3387,0h10.2946c.1869.0001.3386.1518.3386.3388l.0001,1.1628c-.0001.1868-.1518.3385-.3388.3385l-10.2945.0002c-.1868-.0002-.3385-.1519-.3385-.3389l-.0002-1.1627c.0002-.1869.1519-.3386.3389-.3386z" fill="#0a98bf"></path>
  <path d="m1.1305.4182 .09-.0527h-.2915c-.0385,0-.08.0046-.1241.0136s-.0878.0325-.1293.0667c-.0604.0582-.0905.1232-.0905.1947 0,.0592.0214.1111.0638.1555 .0408.0478.0999.0722.1773.0732l.0468-.0029-.0087.025c-.0037.0087-.0056.0194-.0056.0322 0,.0214.0048.0398.0143.0548 .0082.0158.0177.0306.0281.0444l-.128.0129c-.0519.0089-.1014.0269-.1487.0538-.0419.0252-.071.0541-.087.0873s-.0248.0631-.0248.0902c0,.0553.0255.1028.0762.1426s.1266.0643.2287.0652c.1217-.0019.2151-.031.2798-.0872 .0624-.0546.0934-.1172.0934-.1878-.001-.0497-.0121-.0899-.034-.1207s-.0502-.058-.081-.0832l-.0494-.0405-.0221-.025c-.009-.0099-.0133-.0223-.0133-.0376s.0043-.0293.0131-.0412l.024-.0305 .0431-.0391 .0345-.0419c.0223-.0313.0337-.073.0346-.1249 0-.0286-.0031-.0534-.0097-.0747s-.0167-.0398-.0266-.0555-.0214-.0306-.0323-.042l-.031-.0247h.0899zm-.2369.4113c-.0303,0-.0572-.0093-.0807-.0277s-.043-.0412-.058-.0676c-.0308-.057-.0461-.1119-.0461-.1645-.0009-.04.0097-.0759.0318-.1081 .0259-.0311.0589-.0468.0984-.0478 .0299.001.0561.0097.0791.0264s.0408.0403.0543.0682c.0296.0584.0442.1164.0442.1736 0,.0133-.001.0298-.0032.0492s-.0114.0386-.024.057c-.0255.026-.0575.0398-.0958.0413zm.2032.427c0,.0456-.0177.0827-.0528.1116s-.0885.0446-.1572.0455c-.0766-.0009-.137-.0179-.1809-.0511-.0463-.0332-.0696-.0754-.0696-.1266 0-.026.0053-.0483.016-.0667s.0206-.0323.034-.0441l.0412-.0265 .0313-.0126c.0315-.0094.0623-.0165.0924-.0206l.0572-.0029 .0325.0014c.0543.0379.0943.0699.1198.0961 .024.0274.0361.0596.0361.0965z" fill="#dcf2f6" fill-rule="nonzero"></path>
  <path d="m1.9505.6805h.0582v.4162h-.0582v-.4162zm7.8319.376 .0351-.0009 .0255-.0033v-.0931l-.0195-.0051-.0327-.0021-.0268.0018c-.0094.0012-.018.0037-.0258.0075s-.0143.009-.0195.0156-.0078.0153-.0078.0261c0,.02.0064.0339.0192.0417s.0302.0118.0523.0118zm-.0049-.2799c.0225,0 .0414.0029.0568.0087s.0278.014.0372.0246 .0162.0232.0202.0379 .006.0307.006.0483v.1952l-.0202.0033-.0291.0039-.0351.0033-.0376.0015-.0486-.0054c-.0148-.0036-.0276-.0093-.0384-.0171l-.0253-.0309c-.006-.0129-.009-.0283-.009-.0463s.0035-.032.0105-.0444l.0286-.0301c.012-.0076.026-.0132.042-.0168s.0328-.0054.0505-.0054l.0174.0009 .0171.0024 .0141.0027 .0084.0018v-.0156c0-.0092-.001-.0183-.003-.0273s-.0056-.017-.0108-.024-.0123-.0127-.0213-.0169-.0207-.0063-.0352-.0063l-.0483.0039-.0309.0081-.0066-.0462c.0072-.0032.0192-.0063.036-.0093l.0546-.0045zm.2685.3201h-.0559v-.3123h.0559v.3123zm-.0282-.3688c-.01,0-.0185-.0033-.0255-.0099s-.0106-.0155-.0106-.0267 .0035-.0201.0106-.0267 .0155-.0099.0255-.0099 .0185.0033.0255.0099 .0105.0155.0105.0267-.0035.0201-.0105.0267-.0155.0099-.0255.0099zm.218.3748c-.0344-.0008-.0588-.0082-.0732-.0222s-.0217-.0359-.0217-.0655v-.3748l.0559-.0096v.3754c0,.0092.0008.0168.0024.0228s.0042.0108.0078.0144 .0084.0064.0144.0082l.0222.0045-.0078.0468zm-8.1274-.3093 .0511-.0102c.0212-.0036.0456-.0054.0733-.0054 .0248,0 .0454.0035.0618.0105l.0394.0294c.0098.0126.0167.0277.0207.0454s.006.037.006.0582v.1754h-.0559v-.1634c0-.0192-.0013-.0356-.0039-.0492l-.0129-.033c-.006-.0085-.014-.0146-.024-.0184s-.0224-.0057-.0372-.0057l-.0187.0006-.0183.0015-.0156.0021-.0099.0018v.2637h-.0559v-.3033zm.5405.2721-.0279.0123c-.0138.005-.0299.0075-.0483.0075s-.0366-.003-.0532-.009l-.0435-.0279c-.0124-.0127-.0223-.0284-.0295-.0472s-.0108-.0412-.0108-.0673c0-.0228.0034-.0437.0102-.0627s.0168-.0355.0298-.0493l.0477-.0324c.0188-.0078.0401-.0117.0637-.0117l.0681.0057 .049.0105v.2787c0,.048-.0124.0829-.0372.1045s-.0625.0324-.113.0324l-.0555-.0048-.0454-.0114 .0103-.0487 .0411.0118c.0162.0034.0331.0051.0507.0051 .0333,0 .0572-.0066.0718-.0199s.0219-.0342.0219-.063v-.0132zm-.0006-.2319-.0225-.0045-.0381-.0021c-.03,0-.0532.0098-.0694.0295s-.0243.0456-.0243.078c0,.0181.0023.0335.0069.0463l.0186.0318 .027.0186c.0103.004.0208.006.0316.006l.0408-.0063c.0124-.0042.0222-.0091.0294-.0147v-.1826zm.2673-.0558 .0165.0009 .0183.0024 .0165.003 .0111.0027-.0096.0486-.0219-.0057-.0393-.0033-.031.0033-.0201.0045v.2625h-.0559v-.2991l.0493-.0135c.0196-.0042.0416-.0063.0661-.0063zm.099.1633c0-.0276.004-.0517.012-.0723s.0187-.0378.0319-.0514l.0456-.0306c.0172-.0068.0349-.0102.0529-.0102 .042,0 .0742.0131.0967.0393s.0336.0662.0336.1198v.0093c0,.0039-.0002.0074-.0006.0106h-.2138c.0024.0324.0118.057.0282.0738s.0421.0253.0769.0253l.0495-.0051 .0304-.01 .0078.0469-.0358.0114c-.017.004-.0363.006-.0579.006-.0272,0-.0508-.0041-.0706-.0123s-.0361-.0195-.0489-.0339-.0224-.0316-.0286-.0514-.0093-.0415-.0093-.0652zm.2144-.0306c.0004-.0252-.0059-.0459-.0189-.0621s-.0309-.0244-.0537-.0244c-.0128,0-.0242.0025-.034.0075l-.0249.0196-.0159.0276c-.0038.0104-.0063.021-.0075.0318h.1549zm.2114.146c.0228,0 .0398-.003.0508-.009s.0165-.0157.0165-.0289-.0054-.0244-.0162-.0324-.0287-.017-.0535-.027c-.012-.0048-.0235-.0097-.0345-.0148l-.0285-.0177c-.0081-.0068-.0145-.015-.0193-.0246s-.0072-.0214-.0072-.0354c0-.0277.0102-.0496.0307-.0658s.0482-.0243.0834-.0243l.0265.0015 .0246.0036 .0201.0045 .0135.0042-.0102.048-.0282-.0099c-.0128-.0034-.0282-.0051-.0463-.0051s-.0292.0031-.0408.0093-.0174.016-.0174.0292 .0013.0128.0039.018 .0066.0099.012.0141l.0201.0117 .0288.0114 .0397.0165 .0297.019 .0189.0261c.0044.0102.0066.0227.0066.0375 0,.0288-.0107.0507-.0321.0655s-.0519.0222-.0916.0222c-.0276,0-.0492-.0023-.0648-.0069s-.0263-.0081-.0319-.0105l.0102-.0481 .0307.0109c.014.0048.0326.0072.0558.0072zm.301,0 .0351-.0009 .0255-.0033v-.0931l-.0195-.0051-.0327-.0021-.0268.0018c-.0094.0012-.018.0037-.0258.0075s-.0143.009-.0195.0156-.0078.0153-.0078.0261c0,.02.0064.0339.0192.0417s.0302.0118.0523.0118zm-.0049-.2799c.0225,0 .0414.0029.0568.0087s.0278.014.0372.0246 .0162.0232.0202.0379 .006.0307.006.0483v.1952l-.0202.0033-.0291.0039-.0351.0033-.0376.0015-.0486-.0054c-.0148-.0036-.0276-.0093-.0384-.0171l-.0253-.0309c-.006-.0129-.009-.0283-.009-.0463s.0035-.032.0105-.0444l.0286-.0301c.012-.0076.026-.0132.042-.0168s.0328-.0054.0505-.0054l.0174.0009 .0171.0024 .0141.0027 .0084.0018v-.0156c0-.0092-.001-.0183-.003-.0273s-.0056-.017-.0108-.024-.0123-.0127-.0213-.0169-.0207-.0063-.0352-.0063l-.0483.0039-.0309.0081-.0066-.0462c.0072-.0032.0192-.0063.036-.0093l.0546-.0045zm.4871.3273c-.0252,0-.0474-.004-.0664-.012l-.048-.0336c-.013-.0145-.0228-.0316-.0292-.0514s-.0096-.0417-.0096-.0658 .0035-.046.0105-.066 .017-.0374.0298-.052 .0285-.026.0471-.0342 .0394-.0123.0622-.0123l.042.0036 .0403.0114-.0127.0474-.0291-.0096-.0351-.0036c-.0312,0-.0552.0098-.0718.0295s-.0249.0482-.0249.0858c0,.0169.0019.0323.0057.0463s.0098.026.018.036 .0187.0177.0315.0231 .0285.0082.0469.0082l.0402-.0042 .0283-.0091 .0078.0469-.0138.0057-.0205.0048-.0243.0036-.0249.0015zm.4192-.1634c0,.0249-.0036.0473-.0108.0673s-.0173.0372-.0303.0517-.0285.0255-.0466.0333-.0376.0117-.0588.0117-.0409-.0039-.0589-.0117l-.0465-.0333c-.013-.0145-.0232-.0317-.0304-.0517s-.0108-.0424-.0108-.0673 .0036-.0467.0108-.0669 .0174-.0376.0304-.052 .0285-.0255.0465-.0333 .0377-.0117.0589-.0117 .0408.0039.0588.0117l.0466.0333c.013.0144.0231.0318.0303.052s.0108.0425.0108.0669zm-.0582,0c0-.0352-.0079-.0631-.0238-.0837s-.0373-.031-.0645-.031-.0488.0103-.0646.031-.0237.0485-.0237.0837 .0079.0632.0237.0838 .0373.031.0646.031 .0487-.0104.0645-.031 .0238-.0485.0238-.0838zm.1369-.1471 .0511-.0102c.0212-.0036.0456-.0054.0733-.0054 .0248,0 .0454.0035.0618.0105l.0394.0294c.0098.0126.0167.0277.0207.0454s.006.037.006.0582v.1754h-.0559v-.1634c0-.0192-.0013-.0356-.0039-.0492l-.0129-.033c-.006-.0085-.014-.0146-.024-.0184s-.0224-.0057-.0372-.0057l-.0187.0006-.0183.0015-.0156.0021-.0099.0018v.2637h-.0559v-.3033zm.5357-.009h.1183v.0468h-.1183v.1442c0,.0156.0012.0285.0036.0387s.006.0182.0108.024 .0108.01.018.0124l.0253.0036 .0405-.0057 .0213-.0082 .0108.0463-.0294.0105c-.014.0042-.03.0063-.048.0063s-.0388-.0027-.0526-.0081-.0249-.0135-.0333-.0243-.0143-.0241-.0178-.04-.0051-.0341-.0051-.0549v-.2787l.0559-.0096v.0967zm.4378.3033-.0508.0102c-.021.0036-.0453.0054-.0729.0054-.0241,0-.0443-.0035-.0607-.0105l-.0396-.0297c-.01-.0128-.0172-.028-.0216-.0454s-.0067-.0367-.0067-.0579v-.1754h.0559v.1634c0,.038.006.0652.018.0816s.0323.0247.0607.0247l.0186-.0006 .018-.0015 .0153-.0018 .0099-.0021v-.2637h.0559v.3033zm.3705.0162c-.0252,0-.0474-.004-.0664-.012l-.048-.0336c-.013-.0145-.0228-.0316-.0292-.0514s-.0096-.0417-.0096-.0658 .0035-.046.0105-.066 .017-.0374.0298-.052 .0285-.026.0471-.0342 .0394-.0123.0622-.0123l.042.0036 .0403.0114-.0127.0474-.0291-.0096-.0351-.0036c-.0312,0-.0552.0098-.0718.0295s-.0249.0482-.0249.0858c0,.0169.0019.0323.0057.0463s.0098.026.018.036 .0187.0177.0315.0231 .0285.0082.0469.0082l.0402-.0042 .0283-.0091 .0078.0469-.0138.0057-.0205.0048-.0243.0036-.0249.0015zm.3922-.0162-.0508.0102c-.021.0036-.0453.0054-.0729.0054-.0241,0-.0443-.0035-.0607-.0105l-.0396-.0297c-.01-.0128-.0172-.028-.0216-.0454s-.0067-.0367-.0067-.0579v-.1754h.0559v.1634c0,.038.006.0652.018.0816s.0323.0247.0607.0247l.0186-.0006 .018-.0015 .0153-.0018 .0099-.0021v-.2637h.0559v.3033zm.0786-.1466c0-.0276.004-.0517.012-.0723s.0187-.0378.0319-.0514l.0456-.0306c.0172-.0068.0349-.0102.0529-.0102 .042,0 .0742.0131.0967.0393s.0336.0662.0336.1198v.0093c0,.0039-.0002.0074-.0006.0106h-.2138c.0024.0324.0118.057.0282.0738s.0421.0253.0769.0253l.0495-.0051 .0304-.01 .0078.0469-.0358.0114c-.017.004-.0363.006-.0579.006-.0272,0-.0508-.0041-.0706-.0123s-.0361-.0195-.0489-.0339-.0224-.0316-.0286-.0514-.0093-.0415-.0093-.0652zm.2144-.0306c.0004-.0252-.0059-.0459-.0189-.0621s-.0309-.0244-.0537-.0244c-.0128,0-.0242.0025-.034.0075l-.0249.0196-.0159.0276c-.0038.0104-.0063.021-.0075.0318h.1549zm.1387-.1171 .0511-.0102c.0212-.0036.0456-.0054.0733-.0054 .0248,0 .0454.0035.0618.0105l.0394.0294c.0098.0126.0167.0277.0207.0454s.006.037.006.0582v.1754h-.0559v-.1634c0-.0192-.0013-.0356-.0039-.0492l-.0129-.033c-.006-.0085-.014-.0146-.024-.0184s-.0224-.0057-.0372-.0057l-.0187.0006-.0183.0015-.0156.0021-.0099.0018v.2637h-.0559v-.3033zm.397-.009h.1183v.0468h-.1183v.1442c0,.0156.0012.0285.0036.0387s.006.0182.0108.024 .0108.01.018.0124l.0253.0036 .0405-.0057 .0213-.0082 .0108.0463-.0294.0105c-.014.0042-.03.0063-.048.0063s-.0388-.0027-.0526-.0081-.0249-.0135-.0333-.0243-.0143-.0241-.0178-.04-.0051-.0341-.0051-.0549v-.2787l.0559-.0096v.0967zm.2949.2721 .0351-.0009 .0255-.0033v-.0931l-.0195-.0051-.0327-.0021-.0268.0018c-.0094.0012-.018.0037-.0258.0075s-.0143.009-.0195.0156-.0078.0153-.0078.0261c0,.02.0064.0339.0192.0417s.0302.0118.0523.0118zm-.0049-.2799c.0225,0 .0414.0029.0568.0087s.0278.014.0372.0246 .0162.0232.0202.0379 .006.0307.006.0483v.1952l-.0202.0033-.0291.0039-.0351.0033-.0376.0015-.0486-.0054c-.0148-.0036-.0276-.0093-.0384-.0171l-.0253-.0309c-.006-.0129-.009-.0283-.009-.0463s.0035-.032.0105-.0444l.0286-.0301c.012-.0076.026-.0132.042-.0168s.0328-.0054.0505-.0054l.0174.0009 .0171.0024 .0141.0027 .0084.0018v-.0156c0-.0092-.001-.0183-.003-.0273s-.0056-.017-.0108-.024-.0123-.0127-.0213-.0169-.0207-.0063-.0352-.0063l-.0483.0039-.0309.0081-.0066-.0462c.0072-.0032.0192-.0063.036-.0093l.0546-.0045zm.5531.0739c-.0068-.0057-.0166-.0111-.0294-.0163s-.0268-.0078-.042-.0078-.0298.0029-.0412.0087-.0207.0139-.0279.0241-.0124.0223-.0156.0363-.0048.029-.0048.045c0,.0365.009.0646.027.0844s.0421.0298.0721.0298l.0381-.0021 .0237-.0045v-.1976zm0-.2103 .0559-.0096v.4571l-.0492.0108c-.0201.0036-.0431.0054-.0691.0054-.024,0-.0457-.0038-.0649-.0114l-.0492-.0324c-.0136-.0141-.0242-.0312-.0316-.0514s-.0111-.0429-.0111-.0682c0-.024.0031-.046.0093-.066s.0154-.0373.0274-.0517 .0267-.0256.0441-.0336 .0373-.012.0598-.012 .0339.0024.0477.0072 .0241.0094.0309.0138v-.158zm.1346.3009c0-.0276.004-.0517.012-.0723s.0187-.0378.0319-.0514l.0456-.0306c.0172-.0068.0349-.0102.0529-.0102 .042,0 .0742.0131.0967.0393s.0336.0662.0336.1198v.0093c0,.0039-.0002.0074-.0006.0106h-.2138c.0024.0324.0118.057.0282.0738s.0421.0253.0769.0253l.0495-.0051 .0304-.01 .0078.0469-.0358.0114c-.017.004-.0363.006-.0579.006-.0272,0-.0508-.0041-.0706-.0123s-.0361-.0195-.0489-.0339-.0224-.0316-.0286-.0514-.0093-.0415-.0093-.0652zm.2144-.0306c.0004-.0252-.0059-.0459-.0189-.0621s-.0309-.0244-.0537-.0244c-.0128,0-.0242.0025-.034.0075l-.0249.0196-.0159.0276c-.0038.0104-.0063.021-.0075.0318h.1549zm.5351-.0186h.0583v.1946l-.0208.0054-.0312.006-.0387.0051-.0427.0021c-.0292,0-.0558-.0048-.0798-.0144s-.0447-.0236-.0619-.042-.0305-.0411-.04-.0679-.0141-.0577-.0141-.0925 .0053-.0658.016-.0928 .0249-.0498.0429-.0682 .0391-.0324.0634-.042 .0501-.0144.0777-.0144l.0502.0036 .0375.0084 .0255.0096 .0136.0072-.0187.0487c-.0116-.0077-.027-.014-.0462-.019-.0192-.005-.0388-.0075-.0589-.0075s-.0405.0038-.0579.0114l-.0445.0331c-.0122.0144-.0217.0319-.0285.0525s-.0102.0438-.0102.0694c0,.0248.0029.0474.0087.0679s.0146.0379.0264.0525 .0265.0259.0439.0339 .0379.0121.0615.0121l.043-.0027 .0255-.0051v-.155zm.1459-.0985 .0508-.0102c.021-.0036.0453-.0054.073-.0054 .02,0 .0368.0027.0504.0081s.025.0133.0343.0237l.0132-.0084 .0222-.0105 .0294-.009 .0349-.0039c.024,0 .0436.0035.0588.0105l.0358.0297c.0086.0128.0144.028.0174.0457s.0045.0368.0045.0576v.1754h-.0559v-.1634c0-.0184-.0009-.0342-.0027-.0474l-.0102-.033c-.005-.0089-.0118-.0154-.0204-.0196s-.0197-.0063-.0334-.0063c-.0188,0-.0343.0025-.0465.0075l-.0249.0136c.0032.0104.0056.0218.0072.0342s.0024.0254.0024.039v.1754h-.0559v-.1634c0-.0184-.001-.0342-.003-.0474l-.0105-.033c-.005-.0089-.0118-.0154-.0204-.0196s-.0195-.0063-.0327-.0063l-.0181.0006-.0183.0015-.0159.0021-.0096.0018v.2637h-.0559v-.3033z" fill="#dcf2f6" fill-rule="nonzero"></path>
 
</svg>
