<svg fill-rule="evenodd" height="7.1507478567" image-rendering="optimizeQuality" shape-rendering="geometricPrecision" text-rendering="geometricPrecision" viewBox="0 0 0.932331 0.171485" width="38.877164404" xml:space="preserve" xmlns="http://www.w3.org/2000/svg"><defs>
  
 </defs>
 
 
  
  <path d="m.9314.1349c-.0041.0208-.0214.0366-.042.0366h-.7412-.0014-.0014-.1025c-.0206,0-.0379-.0158-.042-.0366 .0032.0123.0145.0215.0278.0215h.8748c.0133,0 .0246-.0092.0278-.0215z" fill="#3d3d3d"></path>
  <path d="m.0288,0h.8748a0.0287806,0.0287806 0 0,1 .0288.0288v.0988a0.0287806,0.0287806 0 0,1 -.0288.0288h-.8748a0.0287806,0.0287806 0 0,1 -.0288-.0288v-.0988a0.0287806,0.0287806 0 0,1 .0288-.0288" fill="#0a98bf"></path>
  <path d="m.0969.0329-.0049-.001-.0047-.0007-.0051-.0002-.0127.0024c-.0032.0016-.0056.004-.0071.0071s-.0022.0068-.0022.0113v.0097h-.0099v.0158h.0099v.0479h.0192v-.0479h.014l.0013-.0158h-.0154v-.0076l.0003-.0037 .0018-.0024 .0044-.0008 .0026.0001 .003.0003 .0029.0005 .0024-.0151z" fill="#dcf2f6" fill-rule="nonzero"></path>
  
   <path d="m.1657.0578h.0049v.0354h-.0049v-.0354zm.0109.0096 .0043-.0009 .0062-.0005 .0053.0009 .0033.0025 .0018.0039 .0005.0049v.0149h-.0048v-.0139l-.0003-.0042-.0011-.0028-.002-.0016-.0032-.0005-.0016.0001-.0016.0001-.0013.0002-.0008.0002v.0224h-.0048v-.0258zm.0434.0231-.0024.001-.0041.0006-.0045-.0008-.0037-.0024-.0025-.004c-.0006-.0016-.0009-.0035-.0009-.0057l.0009-.0053 .0025-.0042 .0041-.0028 .0054-.001 .0058.0005 .0042.0009v.0237c0,.0041-.0011.007-.0032.0089l-.0096.0028-.0047-.0004-.0039-.001 .0009-.0041 .0035.001 .0043.0004 .0061-.0017c.0012-.0011.0019-.0029.0019-.0054v-.0011zm-.0001-.0197-.0019-.0004-.0032-.0002-.0059.0025c-.0014.0017-.0021.0039-.0021.0066l.0006.0039 .0016.0027 .0023.0016 .0027.0005 .0035-.0005 .0025-.0012v-.0155zm.0202-.0047 .0014.0001 .0016.0002 .0014.0003 .0009.0002-.0008.0041-.0019-.0005-.0033-.0003-.0026.0003-.0017.0004v.0223h-.0048v-.0254l.0042-.0011 .0056-.0005zm.0059.0139 .001-.0061 .0027-.0044 .0039-.0026 .0045-.0009 .0082.0033c.0019.0022.0029.0056.0029.0102v.0008l-.0001.0009h-.0182l.0024.0063 .0065.0021 .0042-.0004 .0026-.0008 .0007.004-.003.001-.0049.0005-.006-.001-.0042-.0029-.0024-.0044c-.0005-.0017-.0008-.0035-.0008-.0055zm.0182-.0026-.0016-.0053-.0046-.0021-.0029.0006-.0021.0017-.0014.0023-.0006.0027h.0132zm.0155.0124 .0043-.0008 .0014-.0025-.0014-.0028-.0045-.0023-.0029-.0013-.0024-.0015-.0016-.0021-.0006-.003 .0026-.0056 .0071-.0021 .0023.0001 .0021.0003 .0017.0004 .0011.0004-.0009.0041-.0024-.0008-.0039-.0004-.0035.0008-.0015.0025 .0003.0015 .001.0012 .0017.001 .0024.001 .0034.0014 .0025.0016 .0016.0022 .0006.0032-.0027.0056-.0078.0019-.0055-.0006-.0027-.0009 .0009-.0041 .0026.0009 .0047.0006zm.0231,0 .003-.0001 .0022-.0003v-.0079l-.0017-.0004-.0028-.0002-.0023.0002-.0022.0006-.0017.0013-.0007.0022 .0016.0035 .0044.001zm-.0004-.0238 .0048.0007 .0032.0021 .0017.0032 .0005.0041v.0166l-.0017.0003-.0025.0003-.003.0003-.0032.0001-.0041-.0005-.0033-.0015-.0021-.0026-.0008-.0039 .0009-.0038 .0024-.0026 .0036-.0014 .0043-.0005 .0015.0001 .0015.0002 .0012.0002 .0007.0002v-.0013l-.0003-.0023-.0009-.002-.0018-.0014-.003-.0005-.0041.0003-.0026.0007-.0006-.0039 .0031-.0008 .0046-.0004zm.0389.0278-.0056-.001-.0041-.0029-.0025-.0044c-.0005-.0017-.0008-.0035-.0008-.0056l.0009-.0056 .0025-.0044 .004-.0029 .0053-.001 .0036.0003 .0034.001-.0011.004-.0025-.0008-.003-.0003-.0061.0025c-.0014.0017-.0021.0041-.0021.0073l.0005.0039 .0015.0031 .0027.002 .004.0007 .0034-.0004 .0024-.0008 .0007.004-.0012.0005-.0017.0004-.0021.0003-.0021.0001zm.0331-.0139-.0009.0057-.0026.0044-.004.0028-.005.001-.005-.001-.004-.0028-.0026-.0044c-.0006-.0017-.0009-.0036-.0009-.0057l.0009-.0057 .0026-.0044 .004-.0028 .005-.001 .005.001 .004.0028 .0026.0044c.0006.0017.0009.0036.0009.0057zm-.0049,0c0-.003-.0007-.0054-.002-.0071l-.0055-.0026-.0055.0026c-.0013.0018-.002.0041-.002.0071s.0007.0054.002.0071l.0055.0026 .0055-.0026c.0014-.0018.002-.0041.002-.0071zm.0091-.0125 .0043-.0009 .0062-.0005 .0053.0009 .0033.0025 .0018.0039 .0005.0049v.0149h-.0048v-.0139l-.0003-.0042-.0011-.0028-.002-.0016-.0032-.0005-.0016.0001-.0016.0001-.0013.0002-.0008.0002v.0224h-.0048v-.0258zm.043-.0008h.0101v.004h-.0101v.0123l.0003.0033 .0009.002 .0015.0011 .0021.0003 .0034-.0005 .0018-.0007 .0009.0039-.0025.0009-.0041.0005-.0045-.0007-.0028-.0021-.0015-.0034-.0004-.0047v-.0237l.0048-.0008v.0082zm.0347.0258-.0043.0009-.0062.0005-.0052-.0009-.0034-.0025-.0018-.0039-.0006-.0049v-.0149h.0048v.0139c0,.0032.0005.0055.0015.0069l.0052.0021 .0016-.0001 .0015-.0001 .0013-.0002 .0008-.0002v-.0224h.0048v.0258zm.029.0014-.0056-.001-.0041-.0029-.0025-.0044c-.0005-.0017-.0008-.0035-.0008-.0056l.0009-.0056 .0025-.0044 .004-.0029 .0053-.001 .0036.0003 .0034.001-.0011.004-.0025-.0008-.003-.0003-.0061.0025c-.0014.0017-.0021.0041-.0021.0073l.0005.0039 .0015.0031 .0027.002 .004.0007 .0034-.0004 .0024-.0008 .0007.004-.0012.0005-.0017.0004-.0021.0003-.0021.0001zm.0308-.0014-.0043.0009-.0062.0005-.0052-.0009-.0034-.0025-.0018-.0039-.0006-.0049v-.0149h.0048v.0139c0,.0032.0005.0055.0015.0069l.0052.0021 .0016-.0001 .0015-.0001 .0013-.0002 .0008-.0002v-.0224h.0048v.0258zm.0042-.0125 .001-.0061 .0027-.0044 .0039-.0026 .0045-.0009 .0082.0033c.0019.0022.0029.0056.0029.0102v.0008l-.0001.0009h-.0182l.0024.0063 .0065.0021 .0042-.0004 .0026-.0008 .0007.004-.003.001-.0049.0005-.006-.001-.0042-.0029-.0024-.0044c-.0005-.0017-.0008-.0035-.0008-.0055zm.0182-.0026-.0016-.0053-.0046-.0021-.0029.0006-.0021.0017-.0014.0023-.0006.0027h.0132zm.0093-.01 .0043-.0009 .0062-.0005 .0053.0009 .0033.0025 .0018.0039 .0005.0049v.0149h-.0048v-.0139l-.0003-.0042-.0011-.0028-.002-.0016-.0032-.0005-.0016.0001-.0016.0001-.0013.0002-.0008.0002v.0224h-.0048v-.0258zm.0312-.0008h.0101v.004h-.0101v.0123l.0003.0033 .0009.002 .0015.0011 .0021.0003 .0034-.0005 .0018-.0007 .0009.0039-.0025.0009-.0041.0005-.0045-.0007-.0028-.0021-.0015-.0034-.0004-.0047v-.0237l.0048-.0008v.0082zm.0226.0231 .003-.0001 .0022-.0003v-.0079l-.0017-.0004-.0028-.0002-.0023.0002-.0022.0006-.0017.0013-.0007.0022 .0016.0035 .0044.001zm-.0004-.0238 .0048.0007 .0032.0021 .0017.0032 .0005.0041v.0166l-.0017.0003-.0025.0003-.003.0003-.0032.0001-.0041-.0005-.0033-.0015-.0021-.0026-.0008-.0039 .0009-.0038 .0024-.0026 .0036-.0014 .0043-.0005 .0015.0001 .0015.0002 .0012.0002 .0007.0002v-.0013l-.0003-.0023-.0009-.002-.0018-.0014-.003-.0005-.0041.0003-.0026.0007-.0006-.0039 .0031-.0008 .0046-.0004zm.0445.0063-.0025-.0014-.0036-.0007-.0035.0007-.0024.002-.0013.0031-.0004.0038c0,.0031.0008.0055.0023.0072l.0061.0025 .0032-.0002 .002-.0004v-.0168zm0-.0179 .0048-.0008v.0388l-.0042.0009-.0059.0005-.0055-.001-.0042-.0028-.0027-.0044c-.0006-.0017-.0009-.0036-.0009-.0058l.0008-.0056 .0023-.0044 .0037-.0029 .0051-.001 .0041.0006 .0026.0012v-.0134zm.0089.0256 .001-.0061 .0027-.0044 .0039-.0026 .0045-.0009 .0082.0033c.0019.0022.0029.0056.0029.0102v.0008l-.0001.0009h-.0182l.0024.0063 .0065.0021 .0042-.0004 .0026-.0008 .0007.004-.003.001-.0049.0005-.006-.001-.0042-.0029-.0024-.0044c-.0005-.0017-.0008-.0035-.0008-.0055zm.0182-.0026-.0016-.0053-.0046-.0021-.0029.0006-.0021.0017-.0014.0023-.0006.0027h.0132zm.0214.0158v-.0354h.0213v.0042h-.0164v.0107h.0145v.0042h-.0145v.0163h-.0049zm.0336-.0034 .003-.0001 .0022-.0003v-.0079l-.0017-.0004-.0028-.0002-.0023.0002-.0022.0006-.0017.0013-.0007.0022 .0016.0035 .0044.001zm-.0004-.0238 .0048.0007 .0032.0021 .0017.0032 .0005.0041v.0166l-.0017.0003-.0025.0003-.003.0003-.0032.0001-.0041-.0005-.0033-.0015-.0021-.0026-.0008-.0039 .0009-.0038 .0024-.0026 .0036-.0014 .0043-.0005 .0015.0001 .0015.0002 .0012.0002 .0007.0002v-.0013l-.0003-.0023-.0009-.002-.0018-.0014-.003-.0005-.0041.0003-.0026.0007-.0006-.0039 .0031-.0008 .0046-.0004zm.0271.0278-.0056-.001-.0041-.0029-.0025-.0044c-.0005-.0017-.0008-.0035-.0008-.0056l.0009-.0056 .0025-.0044 .004-.0029 .0053-.001 .0036.0003 .0034.001-.0011.004-.0025-.0008-.003-.0003-.0061.0025c-.0014.0017-.0021.0041-.0021.0073l.0005.0039 .0015.0031 .0027.002 .004.0007 .0034-.0004 .0024-.0008 .0007.004-.0012.0005-.0017.0004-.0021.0003-.0021.0001zm.0082-.0138 .001-.0061 .0027-.0044 .0039-.0026 .0045-.0009 .0082.0033c.0019.0022.0029.0056.0029.0102v.0008l-.0001.0009h-.0182l.0024.0063 .0065.0021 .0042-.0004 .0026-.0008 .0007.004-.003.001-.0049.0005-.006-.001-.0042-.0029-.0024-.0044c-.0005-.0017-.0008-.0035-.0008-.0055zm.0182-.0026-.0016-.0053-.0046-.0021-.0029.0006-.0021.0017-.0014.0023-.0006.0027h.0132z" fill="#dcf2f6" fill-rule="nonzero"></path>
   <path d="m.7951.0678 .0026-.0012 .0041-.0006 .0051.001 .0038.0029 .0023.0044c.0005.0017.0008.0036.0008.0056l-.0009.0058-.0027.0044-.0042.0028-.0055.001-.0059-.0005-.0042-.0009v-.038l.0048-.0008v.0142zm0,.0212 .002.0004 .0032.0002 .0061-.0025c.0015-.0017.0023-.0041.0023-.0072l-.0004-.0038-.0013-.0031-.0024-.002-.0035-.0007-.0036.0007-.0025.0014v.0168zm.0462-.0091-.0009.0057-.0026.0044-.004.0028-.005.001-.005-.001-.004-.0028-.0026-.0044c-.0006-.0017-.0009-.0036-.0009-.0057l.0009-.0057 .0026-.0044 .004-.0028 .005-.001 .005.001 .004.0028 .0026.0044c.0006.0017.0009.0036.0009.0057zm-.0049,0c0-.003-.0007-.0054-.002-.0071l-.0055-.0026-.0055.0026c-.0013.0018-.002.0041-.002.0071s.0007.0054.002.0071l.0055.0026 .0055-.0026c.0014-.0018.002-.0041.002-.0071zm.0326,0-.0009.0057-.0026.0044-.004.0028-.005.001-.005-.001-.004-.0028-.0026-.0044c-.0006-.0017-.0009-.0036-.0009-.0057l.0009-.0057 .0026-.0044 .004-.0028 .005-.001 .005.001 .004.0028 .0026.0044c.0006.0017.0009.0036.0009.0057zm-.0049,0c0-.003-.0007-.0054-.002-.0071l-.0055-.0026-.0055.0026c-.0013.0018-.002.0041-.002.0071s.0007.0054.002.0071l.0055.0026 .0055-.0026c.0014-.0018.002-.0041.002-.0071zm.0187-.0013 .0032.0029 .0034.0037 .0031.0041 .0025.0038h-.0056l-.0025-.0036-.0029-.0036-.0031-.0031-.003-.0024v.0128h-.0048v-.0388l.0048-.0008v.0242l.0027-.0027 .0029-.003 .0027-.0029 .0022-.0025h.0056l-.0025.0028-.0029.0031-.003.0031-.0028.0029z" fill="#dcf2f6" fill-rule="nonzero"></path>
  
 
</svg>
